G04 #@! TF.GenerationSoftware,KiCad,Pcbnew,5.0.2+dfsg1-1*
G04 #@! TF.CreationDate,2019-09-12T15:25:03-03:00*
G04 #@! TF.ProjectId,minicurso,6d696e69-6375-4727-936f-2e6b69636164,rev?*
G04 #@! TF.SameCoordinates,Original*
G04 #@! TF.FileFunction,Paste,Top*
G04 #@! TF.FilePolarity,Positive*
%FSLAX46Y46*%
G04 Gerber Fmt 4.6, Leading zero omitted, Abs format (unit mm)*
G04 Created by KiCad (PCBNEW 5.0.2+dfsg1-1) date qui 12 set 2019 15:25:03 -03*
%MOMM*%
%LPD*%
G01*
G04 APERTURE LIST*
%ADD10C,0.100000*%
%ADD11C,1.150000*%
%ADD12R,3.000000X1.800000*%
%ADD13R,0.500000X1.500000*%
%ADD14R,3.500000X2.400000*%
%ADD15R,0.550000X1.500000*%
%ADD16R,1.500000X0.550000*%
%ADD17C,1.425000*%
G04 APERTURE END LIST*
D10*
G04 #@! TO.C,C2*
G36*
X95844505Y-61531204D02*
X95868773Y-61534804D01*
X95892572Y-61540765D01*
X95915671Y-61549030D01*
X95937850Y-61559520D01*
X95958893Y-61572132D01*
X95978599Y-61586747D01*
X95996777Y-61603223D01*
X96013253Y-61621401D01*
X96027868Y-61641107D01*
X96040480Y-61662150D01*
X96050970Y-61684329D01*
X96059235Y-61707428D01*
X96065196Y-61731227D01*
X96068796Y-61755495D01*
X96070000Y-61779999D01*
X96070000Y-62680001D01*
X96068796Y-62704505D01*
X96065196Y-62728773D01*
X96059235Y-62752572D01*
X96050970Y-62775671D01*
X96040480Y-62797850D01*
X96027868Y-62818893D01*
X96013253Y-62838599D01*
X95996777Y-62856777D01*
X95978599Y-62873253D01*
X95958893Y-62887868D01*
X95937850Y-62900480D01*
X95915671Y-62910970D01*
X95892572Y-62919235D01*
X95868773Y-62925196D01*
X95844505Y-62928796D01*
X95820001Y-62930000D01*
X95169999Y-62930000D01*
X95145495Y-62928796D01*
X95121227Y-62925196D01*
X95097428Y-62919235D01*
X95074329Y-62910970D01*
X95052150Y-62900480D01*
X95031107Y-62887868D01*
X95011401Y-62873253D01*
X94993223Y-62856777D01*
X94976747Y-62838599D01*
X94962132Y-62818893D01*
X94949520Y-62797850D01*
X94939030Y-62775671D01*
X94930765Y-62752572D01*
X94924804Y-62728773D01*
X94921204Y-62704505D01*
X94920000Y-62680001D01*
X94920000Y-61779999D01*
X94921204Y-61755495D01*
X94924804Y-61731227D01*
X94930765Y-61707428D01*
X94939030Y-61684329D01*
X94949520Y-61662150D01*
X94962132Y-61641107D01*
X94976747Y-61621401D01*
X94993223Y-61603223D01*
X95011401Y-61586747D01*
X95031107Y-61572132D01*
X95052150Y-61559520D01*
X95074329Y-61549030D01*
X95097428Y-61540765D01*
X95121227Y-61534804D01*
X95145495Y-61531204D01*
X95169999Y-61530000D01*
X95820001Y-61530000D01*
X95844505Y-61531204D01*
X95844505Y-61531204D01*
G37*
D11*
X95495000Y-62230000D03*
D10*
G36*
X97894505Y-61531204D02*
X97918773Y-61534804D01*
X97942572Y-61540765D01*
X97965671Y-61549030D01*
X97987850Y-61559520D01*
X98008893Y-61572132D01*
X98028599Y-61586747D01*
X98046777Y-61603223D01*
X98063253Y-61621401D01*
X98077868Y-61641107D01*
X98090480Y-61662150D01*
X98100970Y-61684329D01*
X98109235Y-61707428D01*
X98115196Y-61731227D01*
X98118796Y-61755495D01*
X98120000Y-61779999D01*
X98120000Y-62680001D01*
X98118796Y-62704505D01*
X98115196Y-62728773D01*
X98109235Y-62752572D01*
X98100970Y-62775671D01*
X98090480Y-62797850D01*
X98077868Y-62818893D01*
X98063253Y-62838599D01*
X98046777Y-62856777D01*
X98028599Y-62873253D01*
X98008893Y-62887868D01*
X97987850Y-62900480D01*
X97965671Y-62910970D01*
X97942572Y-62919235D01*
X97918773Y-62925196D01*
X97894505Y-62928796D01*
X97870001Y-62930000D01*
X97219999Y-62930000D01*
X97195495Y-62928796D01*
X97171227Y-62925196D01*
X97147428Y-62919235D01*
X97124329Y-62910970D01*
X97102150Y-62900480D01*
X97081107Y-62887868D01*
X97061401Y-62873253D01*
X97043223Y-62856777D01*
X97026747Y-62838599D01*
X97012132Y-62818893D01*
X96999520Y-62797850D01*
X96989030Y-62775671D01*
X96980765Y-62752572D01*
X96974804Y-62728773D01*
X96971204Y-62704505D01*
X96970000Y-62680001D01*
X96970000Y-61779999D01*
X96971204Y-61755495D01*
X96974804Y-61731227D01*
X96980765Y-61707428D01*
X96989030Y-61684329D01*
X96999520Y-61662150D01*
X97012132Y-61641107D01*
X97026747Y-61621401D01*
X97043223Y-61603223D01*
X97061401Y-61586747D01*
X97081107Y-61572132D01*
X97102150Y-61559520D01*
X97124329Y-61549030D01*
X97147428Y-61540765D01*
X97171227Y-61534804D01*
X97195495Y-61531204D01*
X97219999Y-61530000D01*
X97870001Y-61530000D01*
X97894505Y-61531204D01*
X97894505Y-61531204D01*
G37*
D11*
X97545000Y-62230000D03*
G04 #@! TD*
D10*
G04 #@! TO.C,C3*
G36*
X74193464Y-75812304D02*
X74217732Y-75815904D01*
X74241531Y-75821865D01*
X74264630Y-75830130D01*
X74286809Y-75840620D01*
X74307852Y-75853232D01*
X74327558Y-75867847D01*
X74345736Y-75884323D01*
X74362212Y-75902501D01*
X74376827Y-75922207D01*
X74389439Y-75943250D01*
X74399929Y-75965429D01*
X74408194Y-75988528D01*
X74414155Y-76012327D01*
X74417755Y-76036595D01*
X74418959Y-76061099D01*
X74418959Y-76961101D01*
X74417755Y-76985605D01*
X74414155Y-77009873D01*
X74408194Y-77033672D01*
X74399929Y-77056771D01*
X74389439Y-77078950D01*
X74376827Y-77099993D01*
X74362212Y-77119699D01*
X74345736Y-77137877D01*
X74327558Y-77154353D01*
X74307852Y-77168968D01*
X74286809Y-77181580D01*
X74264630Y-77192070D01*
X74241531Y-77200335D01*
X74217732Y-77206296D01*
X74193464Y-77209896D01*
X74168960Y-77211100D01*
X73518958Y-77211100D01*
X73494454Y-77209896D01*
X73470186Y-77206296D01*
X73446387Y-77200335D01*
X73423288Y-77192070D01*
X73401109Y-77181580D01*
X73380066Y-77168968D01*
X73360360Y-77154353D01*
X73342182Y-77137877D01*
X73325706Y-77119699D01*
X73311091Y-77099993D01*
X73298479Y-77078950D01*
X73287989Y-77056771D01*
X73279724Y-77033672D01*
X73273763Y-77009873D01*
X73270163Y-76985605D01*
X73268959Y-76961101D01*
X73268959Y-76061099D01*
X73270163Y-76036595D01*
X73273763Y-76012327D01*
X73279724Y-75988528D01*
X73287989Y-75965429D01*
X73298479Y-75943250D01*
X73311091Y-75922207D01*
X73325706Y-75902501D01*
X73342182Y-75884323D01*
X73360360Y-75867847D01*
X73380066Y-75853232D01*
X73401109Y-75840620D01*
X73423288Y-75830130D01*
X73446387Y-75821865D01*
X73470186Y-75815904D01*
X73494454Y-75812304D01*
X73518958Y-75811100D01*
X74168960Y-75811100D01*
X74193464Y-75812304D01*
X74193464Y-75812304D01*
G37*
D11*
X73843959Y-76511100D03*
D10*
G36*
X72143464Y-75812304D02*
X72167732Y-75815904D01*
X72191531Y-75821865D01*
X72214630Y-75830130D01*
X72236809Y-75840620D01*
X72257852Y-75853232D01*
X72277558Y-75867847D01*
X72295736Y-75884323D01*
X72312212Y-75902501D01*
X72326827Y-75922207D01*
X72339439Y-75943250D01*
X72349929Y-75965429D01*
X72358194Y-75988528D01*
X72364155Y-76012327D01*
X72367755Y-76036595D01*
X72368959Y-76061099D01*
X72368959Y-76961101D01*
X72367755Y-76985605D01*
X72364155Y-77009873D01*
X72358194Y-77033672D01*
X72349929Y-77056771D01*
X72339439Y-77078950D01*
X72326827Y-77099993D01*
X72312212Y-77119699D01*
X72295736Y-77137877D01*
X72277558Y-77154353D01*
X72257852Y-77168968D01*
X72236809Y-77181580D01*
X72214630Y-77192070D01*
X72191531Y-77200335D01*
X72167732Y-77206296D01*
X72143464Y-77209896D01*
X72118960Y-77211100D01*
X71468958Y-77211100D01*
X71444454Y-77209896D01*
X71420186Y-77206296D01*
X71396387Y-77200335D01*
X71373288Y-77192070D01*
X71351109Y-77181580D01*
X71330066Y-77168968D01*
X71310360Y-77154353D01*
X71292182Y-77137877D01*
X71275706Y-77119699D01*
X71261091Y-77099993D01*
X71248479Y-77078950D01*
X71237989Y-77056771D01*
X71229724Y-77033672D01*
X71223763Y-77009873D01*
X71220163Y-76985605D01*
X71218959Y-76961101D01*
X71218959Y-76061099D01*
X71220163Y-76036595D01*
X71223763Y-76012327D01*
X71229724Y-75988528D01*
X71237989Y-75965429D01*
X71248479Y-75943250D01*
X71261091Y-75922207D01*
X71275706Y-75902501D01*
X71292182Y-75884323D01*
X71310360Y-75867847D01*
X71330066Y-75853232D01*
X71351109Y-75840620D01*
X71373288Y-75830130D01*
X71396387Y-75821865D01*
X71420186Y-75815904D01*
X71444454Y-75812304D01*
X71468958Y-75811100D01*
X72118960Y-75811100D01*
X72143464Y-75812304D01*
X72143464Y-75812304D01*
G37*
D11*
X71793959Y-76511100D03*
G04 #@! TD*
D10*
G04 #@! TO.C,C4*
G36*
X66668040Y-69487505D02*
X66692308Y-69491105D01*
X66716107Y-69497066D01*
X66739206Y-69505331D01*
X66761385Y-69515821D01*
X66782428Y-69528433D01*
X66802134Y-69543048D01*
X66820312Y-69559524D01*
X66836788Y-69577702D01*
X66851403Y-69597408D01*
X66864015Y-69618451D01*
X66874505Y-69640630D01*
X66882770Y-69663729D01*
X66888731Y-69687528D01*
X66892331Y-69711796D01*
X66893535Y-69736300D01*
X66893535Y-70636302D01*
X66892331Y-70660806D01*
X66888731Y-70685074D01*
X66882770Y-70708873D01*
X66874505Y-70731972D01*
X66864015Y-70754151D01*
X66851403Y-70775194D01*
X66836788Y-70794900D01*
X66820312Y-70813078D01*
X66802134Y-70829554D01*
X66782428Y-70844169D01*
X66761385Y-70856781D01*
X66739206Y-70867271D01*
X66716107Y-70875536D01*
X66692308Y-70881497D01*
X66668040Y-70885097D01*
X66643536Y-70886301D01*
X65993534Y-70886301D01*
X65969030Y-70885097D01*
X65944762Y-70881497D01*
X65920963Y-70875536D01*
X65897864Y-70867271D01*
X65875685Y-70856781D01*
X65854642Y-70844169D01*
X65834936Y-70829554D01*
X65816758Y-70813078D01*
X65800282Y-70794900D01*
X65785667Y-70775194D01*
X65773055Y-70754151D01*
X65762565Y-70731972D01*
X65754300Y-70708873D01*
X65748339Y-70685074D01*
X65744739Y-70660806D01*
X65743535Y-70636302D01*
X65743535Y-69736300D01*
X65744739Y-69711796D01*
X65748339Y-69687528D01*
X65754300Y-69663729D01*
X65762565Y-69640630D01*
X65773055Y-69618451D01*
X65785667Y-69597408D01*
X65800282Y-69577702D01*
X65816758Y-69559524D01*
X65834936Y-69543048D01*
X65854642Y-69528433D01*
X65875685Y-69515821D01*
X65897864Y-69505331D01*
X65920963Y-69497066D01*
X65944762Y-69491105D01*
X65969030Y-69487505D01*
X65993534Y-69486301D01*
X66643536Y-69486301D01*
X66668040Y-69487505D01*
X66668040Y-69487505D01*
G37*
D11*
X66318535Y-70186301D03*
D10*
G36*
X68718040Y-69487505D02*
X68742308Y-69491105D01*
X68766107Y-69497066D01*
X68789206Y-69505331D01*
X68811385Y-69515821D01*
X68832428Y-69528433D01*
X68852134Y-69543048D01*
X68870312Y-69559524D01*
X68886788Y-69577702D01*
X68901403Y-69597408D01*
X68914015Y-69618451D01*
X68924505Y-69640630D01*
X68932770Y-69663729D01*
X68938731Y-69687528D01*
X68942331Y-69711796D01*
X68943535Y-69736300D01*
X68943535Y-70636302D01*
X68942331Y-70660806D01*
X68938731Y-70685074D01*
X68932770Y-70708873D01*
X68924505Y-70731972D01*
X68914015Y-70754151D01*
X68901403Y-70775194D01*
X68886788Y-70794900D01*
X68870312Y-70813078D01*
X68852134Y-70829554D01*
X68832428Y-70844169D01*
X68811385Y-70856781D01*
X68789206Y-70867271D01*
X68766107Y-70875536D01*
X68742308Y-70881497D01*
X68718040Y-70885097D01*
X68693536Y-70886301D01*
X68043534Y-70886301D01*
X68019030Y-70885097D01*
X67994762Y-70881497D01*
X67970963Y-70875536D01*
X67947864Y-70867271D01*
X67925685Y-70856781D01*
X67904642Y-70844169D01*
X67884936Y-70829554D01*
X67866758Y-70813078D01*
X67850282Y-70794900D01*
X67835667Y-70775194D01*
X67823055Y-70754151D01*
X67812565Y-70731972D01*
X67804300Y-70708873D01*
X67798339Y-70685074D01*
X67794739Y-70660806D01*
X67793535Y-70636302D01*
X67793535Y-69736300D01*
X67794739Y-69711796D01*
X67798339Y-69687528D01*
X67804300Y-69663729D01*
X67812565Y-69640630D01*
X67823055Y-69618451D01*
X67835667Y-69597408D01*
X67850282Y-69577702D01*
X67866758Y-69559524D01*
X67884936Y-69543048D01*
X67904642Y-69528433D01*
X67925685Y-69515821D01*
X67947864Y-69505331D01*
X67970963Y-69497066D01*
X67994762Y-69491105D01*
X68019030Y-69487505D01*
X68043534Y-69486301D01*
X68693536Y-69486301D01*
X68718040Y-69487505D01*
X68718040Y-69487505D01*
G37*
D11*
X68368535Y-70186301D03*
G04 #@! TD*
D10*
G04 #@! TO.C,C5*
G36*
X95844505Y-56451204D02*
X95868773Y-56454804D01*
X95892572Y-56460765D01*
X95915671Y-56469030D01*
X95937850Y-56479520D01*
X95958893Y-56492132D01*
X95978599Y-56506747D01*
X95996777Y-56523223D01*
X96013253Y-56541401D01*
X96027868Y-56561107D01*
X96040480Y-56582150D01*
X96050970Y-56604329D01*
X96059235Y-56627428D01*
X96065196Y-56651227D01*
X96068796Y-56675495D01*
X96070000Y-56699999D01*
X96070000Y-57600001D01*
X96068796Y-57624505D01*
X96065196Y-57648773D01*
X96059235Y-57672572D01*
X96050970Y-57695671D01*
X96040480Y-57717850D01*
X96027868Y-57738893D01*
X96013253Y-57758599D01*
X95996777Y-57776777D01*
X95978599Y-57793253D01*
X95958893Y-57807868D01*
X95937850Y-57820480D01*
X95915671Y-57830970D01*
X95892572Y-57839235D01*
X95868773Y-57845196D01*
X95844505Y-57848796D01*
X95820001Y-57850000D01*
X95169999Y-57850000D01*
X95145495Y-57848796D01*
X95121227Y-57845196D01*
X95097428Y-57839235D01*
X95074329Y-57830970D01*
X95052150Y-57820480D01*
X95031107Y-57807868D01*
X95011401Y-57793253D01*
X94993223Y-57776777D01*
X94976747Y-57758599D01*
X94962132Y-57738893D01*
X94949520Y-57717850D01*
X94939030Y-57695671D01*
X94930765Y-57672572D01*
X94924804Y-57648773D01*
X94921204Y-57624505D01*
X94920000Y-57600001D01*
X94920000Y-56699999D01*
X94921204Y-56675495D01*
X94924804Y-56651227D01*
X94930765Y-56627428D01*
X94939030Y-56604329D01*
X94949520Y-56582150D01*
X94962132Y-56561107D01*
X94976747Y-56541401D01*
X94993223Y-56523223D01*
X95011401Y-56506747D01*
X95031107Y-56492132D01*
X95052150Y-56479520D01*
X95074329Y-56469030D01*
X95097428Y-56460765D01*
X95121227Y-56454804D01*
X95145495Y-56451204D01*
X95169999Y-56450000D01*
X95820001Y-56450000D01*
X95844505Y-56451204D01*
X95844505Y-56451204D01*
G37*
D11*
X95495000Y-57150000D03*
D10*
G36*
X97894505Y-56451204D02*
X97918773Y-56454804D01*
X97942572Y-56460765D01*
X97965671Y-56469030D01*
X97987850Y-56479520D01*
X98008893Y-56492132D01*
X98028599Y-56506747D01*
X98046777Y-56523223D01*
X98063253Y-56541401D01*
X98077868Y-56561107D01*
X98090480Y-56582150D01*
X98100970Y-56604329D01*
X98109235Y-56627428D01*
X98115196Y-56651227D01*
X98118796Y-56675495D01*
X98120000Y-56699999D01*
X98120000Y-57600001D01*
X98118796Y-57624505D01*
X98115196Y-57648773D01*
X98109235Y-57672572D01*
X98100970Y-57695671D01*
X98090480Y-57717850D01*
X98077868Y-57738893D01*
X98063253Y-57758599D01*
X98046777Y-57776777D01*
X98028599Y-57793253D01*
X98008893Y-57807868D01*
X97987850Y-57820480D01*
X97965671Y-57830970D01*
X97942572Y-57839235D01*
X97918773Y-57845196D01*
X97894505Y-57848796D01*
X97870001Y-57850000D01*
X97219999Y-57850000D01*
X97195495Y-57848796D01*
X97171227Y-57845196D01*
X97147428Y-57839235D01*
X97124329Y-57830970D01*
X97102150Y-57820480D01*
X97081107Y-57807868D01*
X97061401Y-57793253D01*
X97043223Y-57776777D01*
X97026747Y-57758599D01*
X97012132Y-57738893D01*
X96999520Y-57717850D01*
X96989030Y-57695671D01*
X96980765Y-57672572D01*
X96974804Y-57648773D01*
X96971204Y-57624505D01*
X96970000Y-57600001D01*
X96970000Y-56699999D01*
X96971204Y-56675495D01*
X96974804Y-56651227D01*
X96980765Y-56627428D01*
X96989030Y-56604329D01*
X96999520Y-56582150D01*
X97012132Y-56561107D01*
X97026747Y-56541401D01*
X97043223Y-56523223D01*
X97061401Y-56506747D01*
X97081107Y-56492132D01*
X97102150Y-56479520D01*
X97124329Y-56469030D01*
X97147428Y-56460765D01*
X97171227Y-56454804D01*
X97195495Y-56451204D01*
X97219999Y-56450000D01*
X97870001Y-56450000D01*
X97894505Y-56451204D01*
X97894505Y-56451204D01*
G37*
D11*
X97545000Y-57150000D03*
G04 #@! TD*
D10*
G04 #@! TO.C,C6*
G36*
X70418040Y-69487505D02*
X70442308Y-69491105D01*
X70466107Y-69497066D01*
X70489206Y-69505331D01*
X70511385Y-69515821D01*
X70532428Y-69528433D01*
X70552134Y-69543048D01*
X70570312Y-69559524D01*
X70586788Y-69577702D01*
X70601403Y-69597408D01*
X70614015Y-69618451D01*
X70624505Y-69640630D01*
X70632770Y-69663729D01*
X70638731Y-69687528D01*
X70642331Y-69711796D01*
X70643535Y-69736300D01*
X70643535Y-70636302D01*
X70642331Y-70660806D01*
X70638731Y-70685074D01*
X70632770Y-70708873D01*
X70624505Y-70731972D01*
X70614015Y-70754151D01*
X70601403Y-70775194D01*
X70586788Y-70794900D01*
X70570312Y-70813078D01*
X70552134Y-70829554D01*
X70532428Y-70844169D01*
X70511385Y-70856781D01*
X70489206Y-70867271D01*
X70466107Y-70875536D01*
X70442308Y-70881497D01*
X70418040Y-70885097D01*
X70393536Y-70886301D01*
X69743534Y-70886301D01*
X69719030Y-70885097D01*
X69694762Y-70881497D01*
X69670963Y-70875536D01*
X69647864Y-70867271D01*
X69625685Y-70856781D01*
X69604642Y-70844169D01*
X69584936Y-70829554D01*
X69566758Y-70813078D01*
X69550282Y-70794900D01*
X69535667Y-70775194D01*
X69523055Y-70754151D01*
X69512565Y-70731972D01*
X69504300Y-70708873D01*
X69498339Y-70685074D01*
X69494739Y-70660806D01*
X69493535Y-70636302D01*
X69493535Y-69736300D01*
X69494739Y-69711796D01*
X69498339Y-69687528D01*
X69504300Y-69663729D01*
X69512565Y-69640630D01*
X69523055Y-69618451D01*
X69535667Y-69597408D01*
X69550282Y-69577702D01*
X69566758Y-69559524D01*
X69584936Y-69543048D01*
X69604642Y-69528433D01*
X69625685Y-69515821D01*
X69647864Y-69505331D01*
X69670963Y-69497066D01*
X69694762Y-69491105D01*
X69719030Y-69487505D01*
X69743534Y-69486301D01*
X70393536Y-69486301D01*
X70418040Y-69487505D01*
X70418040Y-69487505D01*
G37*
D11*
X70068535Y-70186301D03*
D10*
G36*
X72468040Y-69487505D02*
X72492308Y-69491105D01*
X72516107Y-69497066D01*
X72539206Y-69505331D01*
X72561385Y-69515821D01*
X72582428Y-69528433D01*
X72602134Y-69543048D01*
X72620312Y-69559524D01*
X72636788Y-69577702D01*
X72651403Y-69597408D01*
X72664015Y-69618451D01*
X72674505Y-69640630D01*
X72682770Y-69663729D01*
X72688731Y-69687528D01*
X72692331Y-69711796D01*
X72693535Y-69736300D01*
X72693535Y-70636302D01*
X72692331Y-70660806D01*
X72688731Y-70685074D01*
X72682770Y-70708873D01*
X72674505Y-70731972D01*
X72664015Y-70754151D01*
X72651403Y-70775194D01*
X72636788Y-70794900D01*
X72620312Y-70813078D01*
X72602134Y-70829554D01*
X72582428Y-70844169D01*
X72561385Y-70856781D01*
X72539206Y-70867271D01*
X72516107Y-70875536D01*
X72492308Y-70881497D01*
X72468040Y-70885097D01*
X72443536Y-70886301D01*
X71793534Y-70886301D01*
X71769030Y-70885097D01*
X71744762Y-70881497D01*
X71720963Y-70875536D01*
X71697864Y-70867271D01*
X71675685Y-70856781D01*
X71654642Y-70844169D01*
X71634936Y-70829554D01*
X71616758Y-70813078D01*
X71600282Y-70794900D01*
X71585667Y-70775194D01*
X71573055Y-70754151D01*
X71562565Y-70731972D01*
X71554300Y-70708873D01*
X71548339Y-70685074D01*
X71544739Y-70660806D01*
X71543535Y-70636302D01*
X71543535Y-69736300D01*
X71544739Y-69711796D01*
X71548339Y-69687528D01*
X71554300Y-69663729D01*
X71562565Y-69640630D01*
X71573055Y-69618451D01*
X71585667Y-69597408D01*
X71600282Y-69577702D01*
X71616758Y-69559524D01*
X71634936Y-69543048D01*
X71654642Y-69528433D01*
X71675685Y-69515821D01*
X71697864Y-69505331D01*
X71720963Y-69497066D01*
X71744762Y-69491105D01*
X71769030Y-69487505D01*
X71793534Y-69486301D01*
X72443536Y-69486301D01*
X72468040Y-69487505D01*
X72468040Y-69487505D01*
G37*
D11*
X72118535Y-70186301D03*
G04 #@! TD*
D10*
G04 #@! TO.C,C7*
G36*
X77943464Y-75812304D02*
X77967732Y-75815904D01*
X77991531Y-75821865D01*
X78014630Y-75830130D01*
X78036809Y-75840620D01*
X78057852Y-75853232D01*
X78077558Y-75867847D01*
X78095736Y-75884323D01*
X78112212Y-75902501D01*
X78126827Y-75922207D01*
X78139439Y-75943250D01*
X78149929Y-75965429D01*
X78158194Y-75988528D01*
X78164155Y-76012327D01*
X78167755Y-76036595D01*
X78168959Y-76061099D01*
X78168959Y-76961101D01*
X78167755Y-76985605D01*
X78164155Y-77009873D01*
X78158194Y-77033672D01*
X78149929Y-77056771D01*
X78139439Y-77078950D01*
X78126827Y-77099993D01*
X78112212Y-77119699D01*
X78095736Y-77137877D01*
X78077558Y-77154353D01*
X78057852Y-77168968D01*
X78036809Y-77181580D01*
X78014630Y-77192070D01*
X77991531Y-77200335D01*
X77967732Y-77206296D01*
X77943464Y-77209896D01*
X77918960Y-77211100D01*
X77268958Y-77211100D01*
X77244454Y-77209896D01*
X77220186Y-77206296D01*
X77196387Y-77200335D01*
X77173288Y-77192070D01*
X77151109Y-77181580D01*
X77130066Y-77168968D01*
X77110360Y-77154353D01*
X77092182Y-77137877D01*
X77075706Y-77119699D01*
X77061091Y-77099993D01*
X77048479Y-77078950D01*
X77037989Y-77056771D01*
X77029724Y-77033672D01*
X77023763Y-77009873D01*
X77020163Y-76985605D01*
X77018959Y-76961101D01*
X77018959Y-76061099D01*
X77020163Y-76036595D01*
X77023763Y-76012327D01*
X77029724Y-75988528D01*
X77037989Y-75965429D01*
X77048479Y-75943250D01*
X77061091Y-75922207D01*
X77075706Y-75902501D01*
X77092182Y-75884323D01*
X77110360Y-75867847D01*
X77130066Y-75853232D01*
X77151109Y-75840620D01*
X77173288Y-75830130D01*
X77196387Y-75821865D01*
X77220186Y-75815904D01*
X77244454Y-75812304D01*
X77268958Y-75811100D01*
X77918960Y-75811100D01*
X77943464Y-75812304D01*
X77943464Y-75812304D01*
G37*
D11*
X77593959Y-76511100D03*
D10*
G36*
X75893464Y-75812304D02*
X75917732Y-75815904D01*
X75941531Y-75821865D01*
X75964630Y-75830130D01*
X75986809Y-75840620D01*
X76007852Y-75853232D01*
X76027558Y-75867847D01*
X76045736Y-75884323D01*
X76062212Y-75902501D01*
X76076827Y-75922207D01*
X76089439Y-75943250D01*
X76099929Y-75965429D01*
X76108194Y-75988528D01*
X76114155Y-76012327D01*
X76117755Y-76036595D01*
X76118959Y-76061099D01*
X76118959Y-76961101D01*
X76117755Y-76985605D01*
X76114155Y-77009873D01*
X76108194Y-77033672D01*
X76099929Y-77056771D01*
X76089439Y-77078950D01*
X76076827Y-77099993D01*
X76062212Y-77119699D01*
X76045736Y-77137877D01*
X76027558Y-77154353D01*
X76007852Y-77168968D01*
X75986809Y-77181580D01*
X75964630Y-77192070D01*
X75941531Y-77200335D01*
X75917732Y-77206296D01*
X75893464Y-77209896D01*
X75868960Y-77211100D01*
X75218958Y-77211100D01*
X75194454Y-77209896D01*
X75170186Y-77206296D01*
X75146387Y-77200335D01*
X75123288Y-77192070D01*
X75101109Y-77181580D01*
X75080066Y-77168968D01*
X75060360Y-77154353D01*
X75042182Y-77137877D01*
X75025706Y-77119699D01*
X75011091Y-77099993D01*
X74998479Y-77078950D01*
X74987989Y-77056771D01*
X74979724Y-77033672D01*
X74973763Y-77009873D01*
X74970163Y-76985605D01*
X74968959Y-76961101D01*
X74968959Y-76061099D01*
X74970163Y-76036595D01*
X74973763Y-76012327D01*
X74979724Y-75988528D01*
X74987989Y-75965429D01*
X74998479Y-75943250D01*
X75011091Y-75922207D01*
X75025706Y-75902501D01*
X75042182Y-75884323D01*
X75060360Y-75867847D01*
X75080066Y-75853232D01*
X75101109Y-75840620D01*
X75123288Y-75830130D01*
X75146387Y-75821865D01*
X75170186Y-75815904D01*
X75194454Y-75812304D01*
X75218958Y-75811100D01*
X75868960Y-75811100D01*
X75893464Y-75812304D01*
X75893464Y-75812304D01*
G37*
D11*
X75543959Y-76511100D03*
G04 #@! TD*
D10*
G04 #@! TO.C,C1*
G36*
X74168040Y-69487505D02*
X74192308Y-69491105D01*
X74216107Y-69497066D01*
X74239206Y-69505331D01*
X74261385Y-69515821D01*
X74282428Y-69528433D01*
X74302134Y-69543048D01*
X74320312Y-69559524D01*
X74336788Y-69577702D01*
X74351403Y-69597408D01*
X74364015Y-69618451D01*
X74374505Y-69640630D01*
X74382770Y-69663729D01*
X74388731Y-69687528D01*
X74392331Y-69711796D01*
X74393535Y-69736300D01*
X74393535Y-70636302D01*
X74392331Y-70660806D01*
X74388731Y-70685074D01*
X74382770Y-70708873D01*
X74374505Y-70731972D01*
X74364015Y-70754151D01*
X74351403Y-70775194D01*
X74336788Y-70794900D01*
X74320312Y-70813078D01*
X74302134Y-70829554D01*
X74282428Y-70844169D01*
X74261385Y-70856781D01*
X74239206Y-70867271D01*
X74216107Y-70875536D01*
X74192308Y-70881497D01*
X74168040Y-70885097D01*
X74143536Y-70886301D01*
X73493534Y-70886301D01*
X73469030Y-70885097D01*
X73444762Y-70881497D01*
X73420963Y-70875536D01*
X73397864Y-70867271D01*
X73375685Y-70856781D01*
X73354642Y-70844169D01*
X73334936Y-70829554D01*
X73316758Y-70813078D01*
X73300282Y-70794900D01*
X73285667Y-70775194D01*
X73273055Y-70754151D01*
X73262565Y-70731972D01*
X73254300Y-70708873D01*
X73248339Y-70685074D01*
X73244739Y-70660806D01*
X73243535Y-70636302D01*
X73243535Y-69736300D01*
X73244739Y-69711796D01*
X73248339Y-69687528D01*
X73254300Y-69663729D01*
X73262565Y-69640630D01*
X73273055Y-69618451D01*
X73285667Y-69597408D01*
X73300282Y-69577702D01*
X73316758Y-69559524D01*
X73334936Y-69543048D01*
X73354642Y-69528433D01*
X73375685Y-69515821D01*
X73397864Y-69505331D01*
X73420963Y-69497066D01*
X73444762Y-69491105D01*
X73469030Y-69487505D01*
X73493534Y-69486301D01*
X74143536Y-69486301D01*
X74168040Y-69487505D01*
X74168040Y-69487505D01*
G37*
D11*
X73818535Y-70186301D03*
D10*
G36*
X76218040Y-69487505D02*
X76242308Y-69491105D01*
X76266107Y-69497066D01*
X76289206Y-69505331D01*
X76311385Y-69515821D01*
X76332428Y-69528433D01*
X76352134Y-69543048D01*
X76370312Y-69559524D01*
X76386788Y-69577702D01*
X76401403Y-69597408D01*
X76414015Y-69618451D01*
X76424505Y-69640630D01*
X76432770Y-69663729D01*
X76438731Y-69687528D01*
X76442331Y-69711796D01*
X76443535Y-69736300D01*
X76443535Y-70636302D01*
X76442331Y-70660806D01*
X76438731Y-70685074D01*
X76432770Y-70708873D01*
X76424505Y-70731972D01*
X76414015Y-70754151D01*
X76401403Y-70775194D01*
X76386788Y-70794900D01*
X76370312Y-70813078D01*
X76352134Y-70829554D01*
X76332428Y-70844169D01*
X76311385Y-70856781D01*
X76289206Y-70867271D01*
X76266107Y-70875536D01*
X76242308Y-70881497D01*
X76218040Y-70885097D01*
X76193536Y-70886301D01*
X75543534Y-70886301D01*
X75519030Y-70885097D01*
X75494762Y-70881497D01*
X75470963Y-70875536D01*
X75447864Y-70867271D01*
X75425685Y-70856781D01*
X75404642Y-70844169D01*
X75384936Y-70829554D01*
X75366758Y-70813078D01*
X75350282Y-70794900D01*
X75335667Y-70775194D01*
X75323055Y-70754151D01*
X75312565Y-70731972D01*
X75304300Y-70708873D01*
X75298339Y-70685074D01*
X75294739Y-70660806D01*
X75293535Y-70636302D01*
X75293535Y-69736300D01*
X75294739Y-69711796D01*
X75298339Y-69687528D01*
X75304300Y-69663729D01*
X75312565Y-69640630D01*
X75323055Y-69618451D01*
X75335667Y-69597408D01*
X75350282Y-69577702D01*
X75366758Y-69559524D01*
X75384936Y-69543048D01*
X75404642Y-69528433D01*
X75425685Y-69515821D01*
X75447864Y-69505331D01*
X75470963Y-69497066D01*
X75494762Y-69491105D01*
X75519030Y-69487505D01*
X75543534Y-69486301D01*
X76193536Y-69486301D01*
X76218040Y-69487505D01*
X76218040Y-69487505D01*
G37*
D11*
X75868535Y-70186301D03*
G04 #@! TD*
D12*
G04 #@! TO.C,J1*
X106070000Y-49530000D03*
X115570000Y-49530000D03*
D13*
X109220000Y-50680000D03*
X110020000Y-50680000D03*
X110820000Y-50680000D03*
X111620000Y-50680000D03*
X112420000Y-50680000D03*
G04 #@! TD*
D14*
G04 #@! TO.C,Y1*
X112805001Y-40025001D03*
X107605001Y-40025001D03*
G04 #@! TD*
D15*
G04 #@! TO.C,U1*
X82360000Y-47640000D03*
X83160000Y-47640000D03*
X83960000Y-47640000D03*
X84760000Y-47640000D03*
X85560000Y-47640000D03*
X86360000Y-47640000D03*
X87160000Y-47640000D03*
X87960000Y-47640000D03*
X88760000Y-47640000D03*
X89560000Y-47640000D03*
X90360000Y-47640000D03*
D16*
X92060000Y-49340000D03*
X92060000Y-50140000D03*
X92060000Y-50940000D03*
X92060000Y-51740000D03*
X92060000Y-52540000D03*
X92060000Y-53340000D03*
X92060000Y-54140000D03*
X92060000Y-54940000D03*
X92060000Y-55740000D03*
X92060000Y-56540000D03*
X92060000Y-57340000D03*
D15*
X90360000Y-59040000D03*
X89560000Y-59040000D03*
X88760000Y-59040000D03*
X87960000Y-59040000D03*
X87160000Y-59040000D03*
X86360000Y-59040000D03*
X85560000Y-59040000D03*
X84760000Y-59040000D03*
X83960000Y-59040000D03*
X83160000Y-59040000D03*
X82360000Y-59040000D03*
D16*
X80660000Y-57340000D03*
X80660000Y-56540000D03*
X80660000Y-55740000D03*
X80660000Y-54940000D03*
X80660000Y-54140000D03*
X80660000Y-53340000D03*
X80660000Y-52540000D03*
X80660000Y-51740000D03*
X80660000Y-50940000D03*
X80660000Y-50140000D03*
X80660000Y-49340000D03*
G04 #@! TD*
D10*
G04 #@! TO.C,R3*
G36*
X102087004Y-39766204D02*
X102111273Y-39769804D01*
X102135071Y-39775765D01*
X102158171Y-39784030D01*
X102180349Y-39794520D01*
X102201393Y-39807133D01*
X102221098Y-39821747D01*
X102239277Y-39838223D01*
X102255753Y-39856402D01*
X102270367Y-39876107D01*
X102282980Y-39897151D01*
X102293470Y-39919329D01*
X102301735Y-39942429D01*
X102307696Y-39966227D01*
X102311296Y-39990496D01*
X102312500Y-40015000D01*
X102312500Y-41265000D01*
X102311296Y-41289504D01*
X102307696Y-41313773D01*
X102301735Y-41337571D01*
X102293470Y-41360671D01*
X102282980Y-41382849D01*
X102270367Y-41403893D01*
X102255753Y-41423598D01*
X102239277Y-41441777D01*
X102221098Y-41458253D01*
X102201393Y-41472867D01*
X102180349Y-41485480D01*
X102158171Y-41495970D01*
X102135071Y-41504235D01*
X102111273Y-41510196D01*
X102087004Y-41513796D01*
X102062500Y-41515000D01*
X101137500Y-41515000D01*
X101112996Y-41513796D01*
X101088727Y-41510196D01*
X101064929Y-41504235D01*
X101041829Y-41495970D01*
X101019651Y-41485480D01*
X100998607Y-41472867D01*
X100978902Y-41458253D01*
X100960723Y-41441777D01*
X100944247Y-41423598D01*
X100929633Y-41403893D01*
X100917020Y-41382849D01*
X100906530Y-41360671D01*
X100898265Y-41337571D01*
X100892304Y-41313773D01*
X100888704Y-41289504D01*
X100887500Y-41265000D01*
X100887500Y-40015000D01*
X100888704Y-39990496D01*
X100892304Y-39966227D01*
X100898265Y-39942429D01*
X100906530Y-39919329D01*
X100917020Y-39897151D01*
X100929633Y-39876107D01*
X100944247Y-39856402D01*
X100960723Y-39838223D01*
X100978902Y-39821747D01*
X100998607Y-39807133D01*
X101019651Y-39794520D01*
X101041829Y-39784030D01*
X101064929Y-39775765D01*
X101088727Y-39769804D01*
X101112996Y-39766204D01*
X101137500Y-39765000D01*
X102062500Y-39765000D01*
X102087004Y-39766204D01*
X102087004Y-39766204D01*
G37*
D17*
X101600000Y-40640000D03*
D10*
G36*
X99112004Y-39766204D02*
X99136273Y-39769804D01*
X99160071Y-39775765D01*
X99183171Y-39784030D01*
X99205349Y-39794520D01*
X99226393Y-39807133D01*
X99246098Y-39821747D01*
X99264277Y-39838223D01*
X99280753Y-39856402D01*
X99295367Y-39876107D01*
X99307980Y-39897151D01*
X99318470Y-39919329D01*
X99326735Y-39942429D01*
X99332696Y-39966227D01*
X99336296Y-39990496D01*
X99337500Y-40015000D01*
X99337500Y-41265000D01*
X99336296Y-41289504D01*
X99332696Y-41313773D01*
X99326735Y-41337571D01*
X99318470Y-41360671D01*
X99307980Y-41382849D01*
X99295367Y-41403893D01*
X99280753Y-41423598D01*
X99264277Y-41441777D01*
X99246098Y-41458253D01*
X99226393Y-41472867D01*
X99205349Y-41485480D01*
X99183171Y-41495970D01*
X99160071Y-41504235D01*
X99136273Y-41510196D01*
X99112004Y-41513796D01*
X99087500Y-41515000D01*
X98162500Y-41515000D01*
X98137996Y-41513796D01*
X98113727Y-41510196D01*
X98089929Y-41504235D01*
X98066829Y-41495970D01*
X98044651Y-41485480D01*
X98023607Y-41472867D01*
X98003902Y-41458253D01*
X97985723Y-41441777D01*
X97969247Y-41423598D01*
X97954633Y-41403893D01*
X97942020Y-41382849D01*
X97931530Y-41360671D01*
X97923265Y-41337571D01*
X97917304Y-41313773D01*
X97913704Y-41289504D01*
X97912500Y-41265000D01*
X97912500Y-40015000D01*
X97913704Y-39990496D01*
X97917304Y-39966227D01*
X97923265Y-39942429D01*
X97931530Y-39919329D01*
X97942020Y-39897151D01*
X97954633Y-39876107D01*
X97969247Y-39856402D01*
X97985723Y-39838223D01*
X98003902Y-39821747D01*
X98023607Y-39807133D01*
X98044651Y-39794520D01*
X98066829Y-39784030D01*
X98089929Y-39775765D01*
X98113727Y-39769804D01*
X98137996Y-39766204D01*
X98162500Y-39765000D01*
X99087500Y-39765000D01*
X99112004Y-39766204D01*
X99112004Y-39766204D01*
G37*
D17*
X98625000Y-40640000D03*
G04 #@! TD*
D10*
G04 #@! TO.C,R1*
G36*
X59742004Y-75326204D02*
X59766273Y-75329804D01*
X59790071Y-75335765D01*
X59813171Y-75344030D01*
X59835349Y-75354520D01*
X59856393Y-75367133D01*
X59876098Y-75381747D01*
X59894277Y-75398223D01*
X59910753Y-75416402D01*
X59925367Y-75436107D01*
X59937980Y-75457151D01*
X59948470Y-75479329D01*
X59956735Y-75502429D01*
X59962696Y-75526227D01*
X59966296Y-75550496D01*
X59967500Y-75575000D01*
X59967500Y-76825000D01*
X59966296Y-76849504D01*
X59962696Y-76873773D01*
X59956735Y-76897571D01*
X59948470Y-76920671D01*
X59937980Y-76942849D01*
X59925367Y-76963893D01*
X59910753Y-76983598D01*
X59894277Y-77001777D01*
X59876098Y-77018253D01*
X59856393Y-77032867D01*
X59835349Y-77045480D01*
X59813171Y-77055970D01*
X59790071Y-77064235D01*
X59766273Y-77070196D01*
X59742004Y-77073796D01*
X59717500Y-77075000D01*
X58792500Y-77075000D01*
X58767996Y-77073796D01*
X58743727Y-77070196D01*
X58719929Y-77064235D01*
X58696829Y-77055970D01*
X58674651Y-77045480D01*
X58653607Y-77032867D01*
X58633902Y-77018253D01*
X58615723Y-77001777D01*
X58599247Y-76983598D01*
X58584633Y-76963893D01*
X58572020Y-76942849D01*
X58561530Y-76920671D01*
X58553265Y-76897571D01*
X58547304Y-76873773D01*
X58543704Y-76849504D01*
X58542500Y-76825000D01*
X58542500Y-75575000D01*
X58543704Y-75550496D01*
X58547304Y-75526227D01*
X58553265Y-75502429D01*
X58561530Y-75479329D01*
X58572020Y-75457151D01*
X58584633Y-75436107D01*
X58599247Y-75416402D01*
X58615723Y-75398223D01*
X58633902Y-75381747D01*
X58653607Y-75367133D01*
X58674651Y-75354520D01*
X58696829Y-75344030D01*
X58719929Y-75335765D01*
X58743727Y-75329804D01*
X58767996Y-75326204D01*
X58792500Y-75325000D01*
X59717500Y-75325000D01*
X59742004Y-75326204D01*
X59742004Y-75326204D01*
G37*
D17*
X59255000Y-76200000D03*
D10*
G36*
X62717004Y-75326204D02*
X62741273Y-75329804D01*
X62765071Y-75335765D01*
X62788171Y-75344030D01*
X62810349Y-75354520D01*
X62831393Y-75367133D01*
X62851098Y-75381747D01*
X62869277Y-75398223D01*
X62885753Y-75416402D01*
X62900367Y-75436107D01*
X62912980Y-75457151D01*
X62923470Y-75479329D01*
X62931735Y-75502429D01*
X62937696Y-75526227D01*
X62941296Y-75550496D01*
X62942500Y-75575000D01*
X62942500Y-76825000D01*
X62941296Y-76849504D01*
X62937696Y-76873773D01*
X62931735Y-76897571D01*
X62923470Y-76920671D01*
X62912980Y-76942849D01*
X62900367Y-76963893D01*
X62885753Y-76983598D01*
X62869277Y-77001777D01*
X62851098Y-77018253D01*
X62831393Y-77032867D01*
X62810349Y-77045480D01*
X62788171Y-77055970D01*
X62765071Y-77064235D01*
X62741273Y-77070196D01*
X62717004Y-77073796D01*
X62692500Y-77075000D01*
X61767500Y-77075000D01*
X61742996Y-77073796D01*
X61718727Y-77070196D01*
X61694929Y-77064235D01*
X61671829Y-77055970D01*
X61649651Y-77045480D01*
X61628607Y-77032867D01*
X61608902Y-77018253D01*
X61590723Y-77001777D01*
X61574247Y-76983598D01*
X61559633Y-76963893D01*
X61547020Y-76942849D01*
X61536530Y-76920671D01*
X61528265Y-76897571D01*
X61522304Y-76873773D01*
X61518704Y-76849504D01*
X61517500Y-76825000D01*
X61517500Y-75575000D01*
X61518704Y-75550496D01*
X61522304Y-75526227D01*
X61528265Y-75502429D01*
X61536530Y-75479329D01*
X61547020Y-75457151D01*
X61559633Y-75436107D01*
X61574247Y-75416402D01*
X61590723Y-75398223D01*
X61608902Y-75381747D01*
X61628607Y-75367133D01*
X61649651Y-75354520D01*
X61671829Y-75344030D01*
X61694929Y-75335765D01*
X61718727Y-75329804D01*
X61742996Y-75326204D01*
X61767500Y-75325000D01*
X62692500Y-75325000D01*
X62717004Y-75326204D01*
X62717004Y-75326204D01*
G37*
D17*
X62230000Y-76200000D03*
G04 #@! TD*
D10*
G04 #@! TO.C,R2*
G36*
X95737004Y-39766204D02*
X95761273Y-39769804D01*
X95785071Y-39775765D01*
X95808171Y-39784030D01*
X95830349Y-39794520D01*
X95851393Y-39807133D01*
X95871098Y-39821747D01*
X95889277Y-39838223D01*
X95905753Y-39856402D01*
X95920367Y-39876107D01*
X95932980Y-39897151D01*
X95943470Y-39919329D01*
X95951735Y-39942429D01*
X95957696Y-39966227D01*
X95961296Y-39990496D01*
X95962500Y-40015000D01*
X95962500Y-41265000D01*
X95961296Y-41289504D01*
X95957696Y-41313773D01*
X95951735Y-41337571D01*
X95943470Y-41360671D01*
X95932980Y-41382849D01*
X95920367Y-41403893D01*
X95905753Y-41423598D01*
X95889277Y-41441777D01*
X95871098Y-41458253D01*
X95851393Y-41472867D01*
X95830349Y-41485480D01*
X95808171Y-41495970D01*
X95785071Y-41504235D01*
X95761273Y-41510196D01*
X95737004Y-41513796D01*
X95712500Y-41515000D01*
X94787500Y-41515000D01*
X94762996Y-41513796D01*
X94738727Y-41510196D01*
X94714929Y-41504235D01*
X94691829Y-41495970D01*
X94669651Y-41485480D01*
X94648607Y-41472867D01*
X94628902Y-41458253D01*
X94610723Y-41441777D01*
X94594247Y-41423598D01*
X94579633Y-41403893D01*
X94567020Y-41382849D01*
X94556530Y-41360671D01*
X94548265Y-41337571D01*
X94542304Y-41313773D01*
X94538704Y-41289504D01*
X94537500Y-41265000D01*
X94537500Y-40015000D01*
X94538704Y-39990496D01*
X94542304Y-39966227D01*
X94548265Y-39942429D01*
X94556530Y-39919329D01*
X94567020Y-39897151D01*
X94579633Y-39876107D01*
X94594247Y-39856402D01*
X94610723Y-39838223D01*
X94628902Y-39821747D01*
X94648607Y-39807133D01*
X94669651Y-39794520D01*
X94691829Y-39784030D01*
X94714929Y-39775765D01*
X94738727Y-39769804D01*
X94762996Y-39766204D01*
X94787500Y-39765000D01*
X95712500Y-39765000D01*
X95737004Y-39766204D01*
X95737004Y-39766204D01*
G37*
D17*
X95250000Y-40640000D03*
D10*
G36*
X92762004Y-39766204D02*
X92786273Y-39769804D01*
X92810071Y-39775765D01*
X92833171Y-39784030D01*
X92855349Y-39794520D01*
X92876393Y-39807133D01*
X92896098Y-39821747D01*
X92914277Y-39838223D01*
X92930753Y-39856402D01*
X92945367Y-39876107D01*
X92957980Y-39897151D01*
X92968470Y-39919329D01*
X92976735Y-39942429D01*
X92982696Y-39966227D01*
X92986296Y-39990496D01*
X92987500Y-40015000D01*
X92987500Y-41265000D01*
X92986296Y-41289504D01*
X92982696Y-41313773D01*
X92976735Y-41337571D01*
X92968470Y-41360671D01*
X92957980Y-41382849D01*
X92945367Y-41403893D01*
X92930753Y-41423598D01*
X92914277Y-41441777D01*
X92896098Y-41458253D01*
X92876393Y-41472867D01*
X92855349Y-41485480D01*
X92833171Y-41495970D01*
X92810071Y-41504235D01*
X92786273Y-41510196D01*
X92762004Y-41513796D01*
X92737500Y-41515000D01*
X91812500Y-41515000D01*
X91787996Y-41513796D01*
X91763727Y-41510196D01*
X91739929Y-41504235D01*
X91716829Y-41495970D01*
X91694651Y-41485480D01*
X91673607Y-41472867D01*
X91653902Y-41458253D01*
X91635723Y-41441777D01*
X91619247Y-41423598D01*
X91604633Y-41403893D01*
X91592020Y-41382849D01*
X91581530Y-41360671D01*
X91573265Y-41337571D01*
X91567304Y-41313773D01*
X91563704Y-41289504D01*
X91562500Y-41265000D01*
X91562500Y-40015000D01*
X91563704Y-39990496D01*
X91567304Y-39966227D01*
X91573265Y-39942429D01*
X91581530Y-39919329D01*
X91592020Y-39897151D01*
X91604633Y-39876107D01*
X91619247Y-39856402D01*
X91635723Y-39838223D01*
X91653902Y-39821747D01*
X91673607Y-39807133D01*
X91694651Y-39794520D01*
X91716829Y-39784030D01*
X91739929Y-39775765D01*
X91763727Y-39769804D01*
X91787996Y-39766204D01*
X91812500Y-39765000D01*
X92737500Y-39765000D01*
X92762004Y-39766204D01*
X92762004Y-39766204D01*
G37*
D17*
X92275000Y-40640000D03*
G04 #@! TD*
M02*
