G04 #@! TF.GenerationSoftware,KiCad,Pcbnew,5.0.2+dfsg1-1*
G04 #@! TF.CreationDate,2019-09-12T15:25:03-03:00*
G04 #@! TF.ProjectId,minicurso,6d696e69-6375-4727-936f-2e6b69636164,rev?*
G04 #@! TF.SameCoordinates,Original*
G04 #@! TF.FileFunction,Soldermask,Top*
G04 #@! TF.FilePolarity,Negative*
%FSLAX46Y46*%
G04 Gerber Fmt 4.6, Leading zero omitted, Abs format (unit mm)*
G04 Created by KiCad (PCBNEW 5.0.2+dfsg1-1) date qui 12 set 2019 15:25:03 -03*
%MOMM*%
%LPD*%
G01*
G04 APERTURE LIST*
%ADD10C,0.100000*%
G04 APERTURE END LIST*
D10*
G36*
X78057636Y-75764565D02*
X78095323Y-75775998D01*
X78130062Y-75794566D01*
X78160507Y-75819552D01*
X78185493Y-75849997D01*
X78204061Y-75884736D01*
X78215494Y-75922423D01*
X78219959Y-75967761D01*
X78219959Y-77054439D01*
X78215494Y-77099777D01*
X78204061Y-77137464D01*
X78185493Y-77172203D01*
X78160507Y-77202648D01*
X78130062Y-77227634D01*
X78095323Y-77246202D01*
X78057636Y-77257635D01*
X78012298Y-77262100D01*
X77175620Y-77262100D01*
X77130282Y-77257635D01*
X77092595Y-77246202D01*
X77057856Y-77227634D01*
X77027411Y-77202648D01*
X77002425Y-77172203D01*
X76983857Y-77137464D01*
X76972424Y-77099777D01*
X76967959Y-77054439D01*
X76967959Y-75967761D01*
X76972424Y-75922423D01*
X76983857Y-75884736D01*
X77002425Y-75849997D01*
X77027411Y-75819552D01*
X77057856Y-75794566D01*
X77092595Y-75775998D01*
X77130282Y-75764565D01*
X77175620Y-75760100D01*
X78012298Y-75760100D01*
X78057636Y-75764565D01*
X78057636Y-75764565D01*
G37*
G36*
X74307636Y-75764565D02*
X74345323Y-75775998D01*
X74380062Y-75794566D01*
X74410507Y-75819552D01*
X74435493Y-75849997D01*
X74454061Y-75884736D01*
X74465494Y-75922423D01*
X74469959Y-75967761D01*
X74469959Y-77054439D01*
X74465494Y-77099777D01*
X74454061Y-77137464D01*
X74435493Y-77172203D01*
X74410507Y-77202648D01*
X74380062Y-77227634D01*
X74345323Y-77246202D01*
X74307636Y-77257635D01*
X74262298Y-77262100D01*
X73425620Y-77262100D01*
X73380282Y-77257635D01*
X73342595Y-77246202D01*
X73307856Y-77227634D01*
X73277411Y-77202648D01*
X73252425Y-77172203D01*
X73233857Y-77137464D01*
X73222424Y-77099777D01*
X73217959Y-77054439D01*
X73217959Y-75967761D01*
X73222424Y-75922423D01*
X73233857Y-75884736D01*
X73252425Y-75849997D01*
X73277411Y-75819552D01*
X73307856Y-75794566D01*
X73342595Y-75775998D01*
X73380282Y-75764565D01*
X73425620Y-75760100D01*
X74262298Y-75760100D01*
X74307636Y-75764565D01*
X74307636Y-75764565D01*
G37*
G36*
X72257636Y-75764565D02*
X72295323Y-75775998D01*
X72330062Y-75794566D01*
X72360507Y-75819552D01*
X72385493Y-75849997D01*
X72404061Y-75884736D01*
X72415494Y-75922423D01*
X72419959Y-75967761D01*
X72419959Y-77054439D01*
X72415494Y-77099777D01*
X72404061Y-77137464D01*
X72385493Y-77172203D01*
X72360507Y-77202648D01*
X72330062Y-77227634D01*
X72295323Y-77246202D01*
X72257636Y-77257635D01*
X72212298Y-77262100D01*
X71375620Y-77262100D01*
X71330282Y-77257635D01*
X71292595Y-77246202D01*
X71257856Y-77227634D01*
X71227411Y-77202648D01*
X71202425Y-77172203D01*
X71183857Y-77137464D01*
X71172424Y-77099777D01*
X71167959Y-77054439D01*
X71167959Y-75967761D01*
X71172424Y-75922423D01*
X71183857Y-75884736D01*
X71202425Y-75849997D01*
X71227411Y-75819552D01*
X71257856Y-75794566D01*
X71292595Y-75775998D01*
X71330282Y-75764565D01*
X71375620Y-75760100D01*
X72212298Y-75760100D01*
X72257636Y-75764565D01*
X72257636Y-75764565D01*
G37*
G36*
X76007636Y-75764565D02*
X76045323Y-75775998D01*
X76080062Y-75794566D01*
X76110507Y-75819552D01*
X76135493Y-75849997D01*
X76154061Y-75884736D01*
X76165494Y-75922423D01*
X76169959Y-75967761D01*
X76169959Y-77054439D01*
X76165494Y-77099777D01*
X76154061Y-77137464D01*
X76135493Y-77172203D01*
X76110507Y-77202648D01*
X76080062Y-77227634D01*
X76045323Y-77246202D01*
X76007636Y-77257635D01*
X75962298Y-77262100D01*
X75125620Y-77262100D01*
X75080282Y-77257635D01*
X75042595Y-77246202D01*
X75007856Y-77227634D01*
X74977411Y-77202648D01*
X74952425Y-77172203D01*
X74933857Y-77137464D01*
X74922424Y-77099777D01*
X74917959Y-77054439D01*
X74917959Y-75967761D01*
X74922424Y-75922423D01*
X74933857Y-75884736D01*
X74952425Y-75849997D01*
X74977411Y-75819552D01*
X75007856Y-75794566D01*
X75042595Y-75775998D01*
X75080282Y-75764565D01*
X75125620Y-75760100D01*
X75962298Y-75760100D01*
X76007636Y-75764565D01*
X76007636Y-75764565D01*
G37*
G36*
X59868062Y-75278181D02*
X59902977Y-75288773D01*
X59935165Y-75305978D01*
X59963373Y-75329127D01*
X59986522Y-75357335D01*
X60003727Y-75389523D01*
X60014319Y-75424438D01*
X60018500Y-75466895D01*
X60018500Y-76933105D01*
X60014319Y-76975562D01*
X60003727Y-77010477D01*
X59986522Y-77042665D01*
X59963373Y-77070873D01*
X59935165Y-77094022D01*
X59902977Y-77111227D01*
X59868062Y-77121819D01*
X59825605Y-77126000D01*
X58684395Y-77126000D01*
X58641938Y-77121819D01*
X58607023Y-77111227D01*
X58574835Y-77094022D01*
X58546627Y-77070873D01*
X58523478Y-77042665D01*
X58506273Y-77010477D01*
X58495681Y-76975562D01*
X58491500Y-76933105D01*
X58491500Y-75466895D01*
X58495681Y-75424438D01*
X58506273Y-75389523D01*
X58523478Y-75357335D01*
X58546627Y-75329127D01*
X58574835Y-75305978D01*
X58607023Y-75288773D01*
X58641938Y-75278181D01*
X58684395Y-75274000D01*
X59825605Y-75274000D01*
X59868062Y-75278181D01*
X59868062Y-75278181D01*
G37*
G36*
X62843062Y-75278181D02*
X62877977Y-75288773D01*
X62910165Y-75305978D01*
X62938373Y-75329127D01*
X62961522Y-75357335D01*
X62978727Y-75389523D01*
X62989319Y-75424438D01*
X62993500Y-75466895D01*
X62993500Y-76933105D01*
X62989319Y-76975562D01*
X62978727Y-77010477D01*
X62961522Y-77042665D01*
X62938373Y-77070873D01*
X62910165Y-77094022D01*
X62877977Y-77111227D01*
X62843062Y-77121819D01*
X62800605Y-77126000D01*
X61659395Y-77126000D01*
X61616938Y-77121819D01*
X61582023Y-77111227D01*
X61549835Y-77094022D01*
X61521627Y-77070873D01*
X61498478Y-77042665D01*
X61481273Y-77010477D01*
X61470681Y-76975562D01*
X61466500Y-76933105D01*
X61466500Y-75466895D01*
X61470681Y-75424438D01*
X61481273Y-75389523D01*
X61498478Y-75357335D01*
X61521627Y-75329127D01*
X61549835Y-75305978D01*
X61582023Y-75288773D01*
X61616938Y-75278181D01*
X61659395Y-75274000D01*
X62800605Y-75274000D01*
X62843062Y-75278181D01*
X62843062Y-75278181D01*
G37*
G36*
X110600442Y-75305518D02*
X110666627Y-75312037D01*
X110779853Y-75346384D01*
X110836467Y-75363557D01*
X110975087Y-75437652D01*
X110992991Y-75447222D01*
X111016962Y-75466895D01*
X111130186Y-75559814D01*
X111213448Y-75661271D01*
X111242778Y-75697009D01*
X111242779Y-75697011D01*
X111326443Y-75853533D01*
X111326443Y-75853534D01*
X111377963Y-76023373D01*
X111395359Y-76200000D01*
X111377963Y-76376627D01*
X111343616Y-76489853D01*
X111326443Y-76546467D01*
X111252348Y-76685087D01*
X111242778Y-76702991D01*
X111213448Y-76738729D01*
X111130186Y-76840186D01*
X111028729Y-76923448D01*
X110992991Y-76952778D01*
X110992989Y-76952779D01*
X110836467Y-77036443D01*
X110799901Y-77047535D01*
X110666627Y-77087963D01*
X110600442Y-77094482D01*
X110534260Y-77101000D01*
X110445740Y-77101000D01*
X110379558Y-77094482D01*
X110313373Y-77087963D01*
X110180099Y-77047535D01*
X110143533Y-77036443D01*
X109987011Y-76952779D01*
X109987009Y-76952778D01*
X109951271Y-76923448D01*
X109849814Y-76840186D01*
X109766552Y-76738729D01*
X109737222Y-76702991D01*
X109727652Y-76685087D01*
X109653557Y-76546467D01*
X109636384Y-76489853D01*
X109602037Y-76376627D01*
X109584641Y-76200000D01*
X109602037Y-76023373D01*
X109653557Y-75853534D01*
X109653557Y-75853533D01*
X109737221Y-75697011D01*
X109737222Y-75697009D01*
X109766552Y-75661271D01*
X109849814Y-75559814D01*
X109963038Y-75466895D01*
X109987009Y-75447222D01*
X110004913Y-75437652D01*
X110143533Y-75363557D01*
X110200147Y-75346384D01*
X110313373Y-75312037D01*
X110379558Y-75305518D01*
X110445740Y-75299000D01*
X110534260Y-75299000D01*
X110600442Y-75305518D01*
X110600442Y-75305518D01*
G37*
G36*
X108060442Y-75305518D02*
X108126627Y-75312037D01*
X108239853Y-75346384D01*
X108296467Y-75363557D01*
X108435087Y-75437652D01*
X108452991Y-75447222D01*
X108476962Y-75466895D01*
X108590186Y-75559814D01*
X108673448Y-75661271D01*
X108702778Y-75697009D01*
X108702779Y-75697011D01*
X108786443Y-75853533D01*
X108786443Y-75853534D01*
X108837963Y-76023373D01*
X108855359Y-76200000D01*
X108837963Y-76376627D01*
X108803616Y-76489853D01*
X108786443Y-76546467D01*
X108712348Y-76685087D01*
X108702778Y-76702991D01*
X108673448Y-76738729D01*
X108590186Y-76840186D01*
X108488729Y-76923448D01*
X108452991Y-76952778D01*
X108452989Y-76952779D01*
X108296467Y-77036443D01*
X108259901Y-77047535D01*
X108126627Y-77087963D01*
X108060442Y-77094482D01*
X107994260Y-77101000D01*
X107905740Y-77101000D01*
X107839558Y-77094482D01*
X107773373Y-77087963D01*
X107640099Y-77047535D01*
X107603533Y-77036443D01*
X107447011Y-76952779D01*
X107447009Y-76952778D01*
X107411271Y-76923448D01*
X107309814Y-76840186D01*
X107226552Y-76738729D01*
X107197222Y-76702991D01*
X107187652Y-76685087D01*
X107113557Y-76546467D01*
X107096384Y-76489853D01*
X107062037Y-76376627D01*
X107044641Y-76200000D01*
X107062037Y-76023373D01*
X107113557Y-75853534D01*
X107113557Y-75853533D01*
X107197221Y-75697011D01*
X107197222Y-75697009D01*
X107226552Y-75661271D01*
X107309814Y-75559814D01*
X107423038Y-75466895D01*
X107447009Y-75447222D01*
X107464913Y-75437652D01*
X107603533Y-75363557D01*
X107660147Y-75346384D01*
X107773373Y-75312037D01*
X107839558Y-75305518D01*
X107905740Y-75299000D01*
X107994260Y-75299000D01*
X108060442Y-75305518D01*
X108060442Y-75305518D01*
G37*
G36*
X105520442Y-75305518D02*
X105586627Y-75312037D01*
X105699853Y-75346384D01*
X105756467Y-75363557D01*
X105895087Y-75437652D01*
X105912991Y-75447222D01*
X105936962Y-75466895D01*
X106050186Y-75559814D01*
X106133448Y-75661271D01*
X106162778Y-75697009D01*
X106162779Y-75697011D01*
X106246443Y-75853533D01*
X106246443Y-75853534D01*
X106297963Y-76023373D01*
X106315359Y-76200000D01*
X106297963Y-76376627D01*
X106263616Y-76489853D01*
X106246443Y-76546467D01*
X106172348Y-76685087D01*
X106162778Y-76702991D01*
X106133448Y-76738729D01*
X106050186Y-76840186D01*
X105948729Y-76923448D01*
X105912991Y-76952778D01*
X105912989Y-76952779D01*
X105756467Y-77036443D01*
X105719901Y-77047535D01*
X105586627Y-77087963D01*
X105520442Y-77094482D01*
X105454260Y-77101000D01*
X105365740Y-77101000D01*
X105299558Y-77094482D01*
X105233373Y-77087963D01*
X105100099Y-77047535D01*
X105063533Y-77036443D01*
X104907011Y-76952779D01*
X104907009Y-76952778D01*
X104871271Y-76923448D01*
X104769814Y-76840186D01*
X104686552Y-76738729D01*
X104657222Y-76702991D01*
X104647652Y-76685087D01*
X104573557Y-76546467D01*
X104556384Y-76489853D01*
X104522037Y-76376627D01*
X104504641Y-76200000D01*
X104522037Y-76023373D01*
X104573557Y-75853534D01*
X104573557Y-75853533D01*
X104657221Y-75697011D01*
X104657222Y-75697009D01*
X104686552Y-75661271D01*
X104769814Y-75559814D01*
X104883038Y-75466895D01*
X104907009Y-75447222D01*
X104924913Y-75437652D01*
X105063533Y-75363557D01*
X105120147Y-75346384D01*
X105233373Y-75312037D01*
X105299558Y-75305518D01*
X105365740Y-75299000D01*
X105454260Y-75299000D01*
X105520442Y-75305518D01*
X105520442Y-75305518D01*
G37*
G36*
X102980442Y-75305518D02*
X103046627Y-75312037D01*
X103159853Y-75346384D01*
X103216467Y-75363557D01*
X103355087Y-75437652D01*
X103372991Y-75447222D01*
X103396962Y-75466895D01*
X103510186Y-75559814D01*
X103593448Y-75661271D01*
X103622778Y-75697009D01*
X103622779Y-75697011D01*
X103706443Y-75853533D01*
X103706443Y-75853534D01*
X103757963Y-76023373D01*
X103775359Y-76200000D01*
X103757963Y-76376627D01*
X103723616Y-76489853D01*
X103706443Y-76546467D01*
X103632348Y-76685087D01*
X103622778Y-76702991D01*
X103593448Y-76738729D01*
X103510186Y-76840186D01*
X103408729Y-76923448D01*
X103372991Y-76952778D01*
X103372989Y-76952779D01*
X103216467Y-77036443D01*
X103179901Y-77047535D01*
X103046627Y-77087963D01*
X102980442Y-77094482D01*
X102914260Y-77101000D01*
X102825740Y-77101000D01*
X102759558Y-77094482D01*
X102693373Y-77087963D01*
X102560099Y-77047535D01*
X102523533Y-77036443D01*
X102367011Y-76952779D01*
X102367009Y-76952778D01*
X102331271Y-76923448D01*
X102229814Y-76840186D01*
X102146552Y-76738729D01*
X102117222Y-76702991D01*
X102107652Y-76685087D01*
X102033557Y-76546467D01*
X102016384Y-76489853D01*
X101982037Y-76376627D01*
X101964641Y-76200000D01*
X101982037Y-76023373D01*
X102033557Y-75853534D01*
X102033557Y-75853533D01*
X102117221Y-75697011D01*
X102117222Y-75697009D01*
X102146552Y-75661271D01*
X102229814Y-75559814D01*
X102343038Y-75466895D01*
X102367009Y-75447222D01*
X102384913Y-75437652D01*
X102523533Y-75363557D01*
X102580147Y-75346384D01*
X102693373Y-75312037D01*
X102759558Y-75305518D01*
X102825740Y-75299000D01*
X102914260Y-75299000D01*
X102980442Y-75305518D01*
X102980442Y-75305518D01*
G37*
G36*
X100440442Y-75305518D02*
X100506627Y-75312037D01*
X100619853Y-75346384D01*
X100676467Y-75363557D01*
X100815087Y-75437652D01*
X100832991Y-75447222D01*
X100856962Y-75466895D01*
X100970186Y-75559814D01*
X101053448Y-75661271D01*
X101082778Y-75697009D01*
X101082779Y-75697011D01*
X101166443Y-75853533D01*
X101166443Y-75853534D01*
X101217963Y-76023373D01*
X101235359Y-76200000D01*
X101217963Y-76376627D01*
X101183616Y-76489853D01*
X101166443Y-76546467D01*
X101092348Y-76685087D01*
X101082778Y-76702991D01*
X101053448Y-76738729D01*
X100970186Y-76840186D01*
X100868729Y-76923448D01*
X100832991Y-76952778D01*
X100832989Y-76952779D01*
X100676467Y-77036443D01*
X100639901Y-77047535D01*
X100506627Y-77087963D01*
X100440442Y-77094482D01*
X100374260Y-77101000D01*
X100285740Y-77101000D01*
X100219558Y-77094482D01*
X100153373Y-77087963D01*
X100020099Y-77047535D01*
X99983533Y-77036443D01*
X99827011Y-76952779D01*
X99827009Y-76952778D01*
X99791271Y-76923448D01*
X99689814Y-76840186D01*
X99606552Y-76738729D01*
X99577222Y-76702991D01*
X99567652Y-76685087D01*
X99493557Y-76546467D01*
X99476384Y-76489853D01*
X99442037Y-76376627D01*
X99424641Y-76200000D01*
X99442037Y-76023373D01*
X99493557Y-75853534D01*
X99493557Y-75853533D01*
X99577221Y-75697011D01*
X99577222Y-75697009D01*
X99606552Y-75661271D01*
X99689814Y-75559814D01*
X99803038Y-75466895D01*
X99827009Y-75447222D01*
X99844913Y-75437652D01*
X99983533Y-75363557D01*
X100040147Y-75346384D01*
X100153373Y-75312037D01*
X100219558Y-75305518D01*
X100285740Y-75299000D01*
X100374260Y-75299000D01*
X100440442Y-75305518D01*
X100440442Y-75305518D01*
G37*
G36*
X97900442Y-75305518D02*
X97966627Y-75312037D01*
X98079853Y-75346384D01*
X98136467Y-75363557D01*
X98275087Y-75437652D01*
X98292991Y-75447222D01*
X98316962Y-75466895D01*
X98430186Y-75559814D01*
X98513448Y-75661271D01*
X98542778Y-75697009D01*
X98542779Y-75697011D01*
X98626443Y-75853533D01*
X98626443Y-75853534D01*
X98677963Y-76023373D01*
X98695359Y-76200000D01*
X98677963Y-76376627D01*
X98643616Y-76489853D01*
X98626443Y-76546467D01*
X98552348Y-76685087D01*
X98542778Y-76702991D01*
X98513448Y-76738729D01*
X98430186Y-76840186D01*
X98328729Y-76923448D01*
X98292991Y-76952778D01*
X98292989Y-76952779D01*
X98136467Y-77036443D01*
X98099901Y-77047535D01*
X97966627Y-77087963D01*
X97900442Y-77094482D01*
X97834260Y-77101000D01*
X97745740Y-77101000D01*
X97679558Y-77094482D01*
X97613373Y-77087963D01*
X97480099Y-77047535D01*
X97443533Y-77036443D01*
X97287011Y-76952779D01*
X97287009Y-76952778D01*
X97251271Y-76923448D01*
X97149814Y-76840186D01*
X97066552Y-76738729D01*
X97037222Y-76702991D01*
X97027652Y-76685087D01*
X96953557Y-76546467D01*
X96936384Y-76489853D01*
X96902037Y-76376627D01*
X96884641Y-76200000D01*
X96902037Y-76023373D01*
X96953557Y-75853534D01*
X96953557Y-75853533D01*
X97037221Y-75697011D01*
X97037222Y-75697009D01*
X97066552Y-75661271D01*
X97149814Y-75559814D01*
X97263038Y-75466895D01*
X97287009Y-75447222D01*
X97304913Y-75437652D01*
X97443533Y-75363557D01*
X97500147Y-75346384D01*
X97613373Y-75312037D01*
X97679558Y-75305518D01*
X97745740Y-75299000D01*
X97834260Y-75299000D01*
X97900442Y-75305518D01*
X97900442Y-75305518D01*
G37*
G36*
X95360442Y-75305518D02*
X95426627Y-75312037D01*
X95539853Y-75346384D01*
X95596467Y-75363557D01*
X95735087Y-75437652D01*
X95752991Y-75447222D01*
X95776962Y-75466895D01*
X95890186Y-75559814D01*
X95973448Y-75661271D01*
X96002778Y-75697009D01*
X96002779Y-75697011D01*
X96086443Y-75853533D01*
X96086443Y-75853534D01*
X96137963Y-76023373D01*
X96155359Y-76200000D01*
X96137963Y-76376627D01*
X96103616Y-76489853D01*
X96086443Y-76546467D01*
X96012348Y-76685087D01*
X96002778Y-76702991D01*
X95973448Y-76738729D01*
X95890186Y-76840186D01*
X95788729Y-76923448D01*
X95752991Y-76952778D01*
X95752989Y-76952779D01*
X95596467Y-77036443D01*
X95559901Y-77047535D01*
X95426627Y-77087963D01*
X95360442Y-77094482D01*
X95294260Y-77101000D01*
X95205740Y-77101000D01*
X95139558Y-77094482D01*
X95073373Y-77087963D01*
X94940099Y-77047535D01*
X94903533Y-77036443D01*
X94747011Y-76952779D01*
X94747009Y-76952778D01*
X94711271Y-76923448D01*
X94609814Y-76840186D01*
X94526552Y-76738729D01*
X94497222Y-76702991D01*
X94487652Y-76685087D01*
X94413557Y-76546467D01*
X94396384Y-76489853D01*
X94362037Y-76376627D01*
X94344641Y-76200000D01*
X94362037Y-76023373D01*
X94413557Y-75853534D01*
X94413557Y-75853533D01*
X94497221Y-75697011D01*
X94497222Y-75697009D01*
X94526552Y-75661271D01*
X94609814Y-75559814D01*
X94723038Y-75466895D01*
X94747009Y-75447222D01*
X94764913Y-75437652D01*
X94903533Y-75363557D01*
X94960147Y-75346384D01*
X95073373Y-75312037D01*
X95139558Y-75305518D01*
X95205740Y-75299000D01*
X95294260Y-75299000D01*
X95360442Y-75305518D01*
X95360442Y-75305518D01*
G37*
G36*
X93611000Y-77101000D02*
X91809000Y-77101000D01*
X91809000Y-75299000D01*
X93611000Y-75299000D01*
X93611000Y-77101000D01*
X93611000Y-77101000D01*
G37*
G36*
X113140442Y-75305518D02*
X113206627Y-75312037D01*
X113319853Y-75346384D01*
X113376467Y-75363557D01*
X113515087Y-75437652D01*
X113532991Y-75447222D01*
X113556962Y-75466895D01*
X113670186Y-75559814D01*
X113753448Y-75661271D01*
X113782778Y-75697009D01*
X113782779Y-75697011D01*
X113866443Y-75853533D01*
X113866443Y-75853534D01*
X113917963Y-76023373D01*
X113935359Y-76200000D01*
X113917963Y-76376627D01*
X113883616Y-76489853D01*
X113866443Y-76546467D01*
X113792348Y-76685087D01*
X113782778Y-76702991D01*
X113753448Y-76738729D01*
X113670186Y-76840186D01*
X113568729Y-76923448D01*
X113532991Y-76952778D01*
X113532989Y-76952779D01*
X113376467Y-77036443D01*
X113339901Y-77047535D01*
X113206627Y-77087963D01*
X113140442Y-77094482D01*
X113074260Y-77101000D01*
X112985740Y-77101000D01*
X112919558Y-77094482D01*
X112853373Y-77087963D01*
X112720099Y-77047535D01*
X112683533Y-77036443D01*
X112527011Y-76952779D01*
X112527009Y-76952778D01*
X112491271Y-76923448D01*
X112389814Y-76840186D01*
X112306552Y-76738729D01*
X112277222Y-76702991D01*
X112267652Y-76685087D01*
X112193557Y-76546467D01*
X112176384Y-76489853D01*
X112142037Y-76376627D01*
X112124641Y-76200000D01*
X112142037Y-76023373D01*
X112193557Y-75853534D01*
X112193557Y-75853533D01*
X112277221Y-75697011D01*
X112277222Y-75697009D01*
X112306552Y-75661271D01*
X112389814Y-75559814D01*
X112503038Y-75466895D01*
X112527009Y-75447222D01*
X112544913Y-75437652D01*
X112683533Y-75363557D01*
X112740147Y-75346384D01*
X112853373Y-75312037D01*
X112919558Y-75305518D01*
X112985740Y-75299000D01*
X113074260Y-75299000D01*
X113140442Y-75305518D01*
X113140442Y-75305518D01*
G37*
G36*
X115680442Y-75305518D02*
X115746627Y-75312037D01*
X115859853Y-75346384D01*
X115916467Y-75363557D01*
X116055087Y-75437652D01*
X116072991Y-75447222D01*
X116096962Y-75466895D01*
X116210186Y-75559814D01*
X116293448Y-75661271D01*
X116322778Y-75697009D01*
X116322779Y-75697011D01*
X116406443Y-75853533D01*
X116406443Y-75853534D01*
X116457963Y-76023373D01*
X116475359Y-76200000D01*
X116457963Y-76376627D01*
X116423616Y-76489853D01*
X116406443Y-76546467D01*
X116332348Y-76685087D01*
X116322778Y-76702991D01*
X116293448Y-76738729D01*
X116210186Y-76840186D01*
X116108729Y-76923448D01*
X116072991Y-76952778D01*
X116072989Y-76952779D01*
X115916467Y-77036443D01*
X115879901Y-77047535D01*
X115746627Y-77087963D01*
X115680442Y-77094482D01*
X115614260Y-77101000D01*
X115525740Y-77101000D01*
X115459558Y-77094482D01*
X115393373Y-77087963D01*
X115260099Y-77047535D01*
X115223533Y-77036443D01*
X115067011Y-76952779D01*
X115067009Y-76952778D01*
X115031271Y-76923448D01*
X114929814Y-76840186D01*
X114846552Y-76738729D01*
X114817222Y-76702991D01*
X114807652Y-76685087D01*
X114733557Y-76546467D01*
X114716384Y-76489853D01*
X114682037Y-76376627D01*
X114664641Y-76200000D01*
X114682037Y-76023373D01*
X114733557Y-75853534D01*
X114733557Y-75853533D01*
X114817221Y-75697011D01*
X114817222Y-75697009D01*
X114846552Y-75661271D01*
X114929814Y-75559814D01*
X115043038Y-75466895D01*
X115067009Y-75447222D01*
X115084913Y-75437652D01*
X115223533Y-75363557D01*
X115280147Y-75346384D01*
X115393373Y-75312037D01*
X115459558Y-75305518D01*
X115525740Y-75299000D01*
X115614260Y-75299000D01*
X115680442Y-75305518D01*
X115680442Y-75305518D01*
G37*
G36*
X76332212Y-69439766D02*
X76369899Y-69451199D01*
X76404638Y-69469767D01*
X76435083Y-69494753D01*
X76460069Y-69525198D01*
X76478637Y-69559937D01*
X76490070Y-69597624D01*
X76494535Y-69642962D01*
X76494535Y-70729640D01*
X76490070Y-70774978D01*
X76478637Y-70812665D01*
X76460069Y-70847404D01*
X76435083Y-70877849D01*
X76404638Y-70902835D01*
X76369899Y-70921403D01*
X76332212Y-70932836D01*
X76286874Y-70937301D01*
X75450196Y-70937301D01*
X75404858Y-70932836D01*
X75367171Y-70921403D01*
X75332432Y-70902835D01*
X75301987Y-70877849D01*
X75277001Y-70847404D01*
X75258433Y-70812665D01*
X75247000Y-70774978D01*
X75242535Y-70729640D01*
X75242535Y-69642962D01*
X75247000Y-69597624D01*
X75258433Y-69559937D01*
X75277001Y-69525198D01*
X75301987Y-69494753D01*
X75332432Y-69469767D01*
X75367171Y-69451199D01*
X75404858Y-69439766D01*
X75450196Y-69435301D01*
X76286874Y-69435301D01*
X76332212Y-69439766D01*
X76332212Y-69439766D01*
G37*
G36*
X66782212Y-69439766D02*
X66819899Y-69451199D01*
X66854638Y-69469767D01*
X66885083Y-69494753D01*
X66910069Y-69525198D01*
X66928637Y-69559937D01*
X66940070Y-69597624D01*
X66944535Y-69642962D01*
X66944535Y-70729640D01*
X66940070Y-70774978D01*
X66928637Y-70812665D01*
X66910069Y-70847404D01*
X66885083Y-70877849D01*
X66854638Y-70902835D01*
X66819899Y-70921403D01*
X66782212Y-70932836D01*
X66736874Y-70937301D01*
X65900196Y-70937301D01*
X65854858Y-70932836D01*
X65817171Y-70921403D01*
X65782432Y-70902835D01*
X65751987Y-70877849D01*
X65727001Y-70847404D01*
X65708433Y-70812665D01*
X65697000Y-70774978D01*
X65692535Y-70729640D01*
X65692535Y-69642962D01*
X65697000Y-69597624D01*
X65708433Y-69559937D01*
X65727001Y-69525198D01*
X65751987Y-69494753D01*
X65782432Y-69469767D01*
X65817171Y-69451199D01*
X65854858Y-69439766D01*
X65900196Y-69435301D01*
X66736874Y-69435301D01*
X66782212Y-69439766D01*
X66782212Y-69439766D01*
G37*
G36*
X68832212Y-69439766D02*
X68869899Y-69451199D01*
X68904638Y-69469767D01*
X68935083Y-69494753D01*
X68960069Y-69525198D01*
X68978637Y-69559937D01*
X68990070Y-69597624D01*
X68994535Y-69642962D01*
X68994535Y-70729640D01*
X68990070Y-70774978D01*
X68978637Y-70812665D01*
X68960069Y-70847404D01*
X68935083Y-70877849D01*
X68904638Y-70902835D01*
X68869899Y-70921403D01*
X68832212Y-70932836D01*
X68786874Y-70937301D01*
X67950196Y-70937301D01*
X67904858Y-70932836D01*
X67867171Y-70921403D01*
X67832432Y-70902835D01*
X67801987Y-70877849D01*
X67777001Y-70847404D01*
X67758433Y-70812665D01*
X67747000Y-70774978D01*
X67742535Y-70729640D01*
X67742535Y-69642962D01*
X67747000Y-69597624D01*
X67758433Y-69559937D01*
X67777001Y-69525198D01*
X67801987Y-69494753D01*
X67832432Y-69469767D01*
X67867171Y-69451199D01*
X67904858Y-69439766D01*
X67950196Y-69435301D01*
X68786874Y-69435301D01*
X68832212Y-69439766D01*
X68832212Y-69439766D01*
G37*
G36*
X70532212Y-69439766D02*
X70569899Y-69451199D01*
X70604638Y-69469767D01*
X70635083Y-69494753D01*
X70660069Y-69525198D01*
X70678637Y-69559937D01*
X70690070Y-69597624D01*
X70694535Y-69642962D01*
X70694535Y-70729640D01*
X70690070Y-70774978D01*
X70678637Y-70812665D01*
X70660069Y-70847404D01*
X70635083Y-70877849D01*
X70604638Y-70902835D01*
X70569899Y-70921403D01*
X70532212Y-70932836D01*
X70486874Y-70937301D01*
X69650196Y-70937301D01*
X69604858Y-70932836D01*
X69567171Y-70921403D01*
X69532432Y-70902835D01*
X69501987Y-70877849D01*
X69477001Y-70847404D01*
X69458433Y-70812665D01*
X69447000Y-70774978D01*
X69442535Y-70729640D01*
X69442535Y-69642962D01*
X69447000Y-69597624D01*
X69458433Y-69559937D01*
X69477001Y-69525198D01*
X69501987Y-69494753D01*
X69532432Y-69469767D01*
X69567171Y-69451199D01*
X69604858Y-69439766D01*
X69650196Y-69435301D01*
X70486874Y-69435301D01*
X70532212Y-69439766D01*
X70532212Y-69439766D01*
G37*
G36*
X74282212Y-69439766D02*
X74319899Y-69451199D01*
X74354638Y-69469767D01*
X74385083Y-69494753D01*
X74410069Y-69525198D01*
X74428637Y-69559937D01*
X74440070Y-69597624D01*
X74444535Y-69642962D01*
X74444535Y-70729640D01*
X74440070Y-70774978D01*
X74428637Y-70812665D01*
X74410069Y-70847404D01*
X74385083Y-70877849D01*
X74354638Y-70902835D01*
X74319899Y-70921403D01*
X74282212Y-70932836D01*
X74236874Y-70937301D01*
X73400196Y-70937301D01*
X73354858Y-70932836D01*
X73317171Y-70921403D01*
X73282432Y-70902835D01*
X73251987Y-70877849D01*
X73227001Y-70847404D01*
X73208433Y-70812665D01*
X73197000Y-70774978D01*
X73192535Y-70729640D01*
X73192535Y-69642962D01*
X73197000Y-69597624D01*
X73208433Y-69559937D01*
X73227001Y-69525198D01*
X73251987Y-69494753D01*
X73282432Y-69469767D01*
X73317171Y-69451199D01*
X73354858Y-69439766D01*
X73400196Y-69435301D01*
X74236874Y-69435301D01*
X74282212Y-69439766D01*
X74282212Y-69439766D01*
G37*
G36*
X72582212Y-69439766D02*
X72619899Y-69451199D01*
X72654638Y-69469767D01*
X72685083Y-69494753D01*
X72710069Y-69525198D01*
X72728637Y-69559937D01*
X72740070Y-69597624D01*
X72744535Y-69642962D01*
X72744535Y-70729640D01*
X72740070Y-70774978D01*
X72728637Y-70812665D01*
X72710069Y-70847404D01*
X72685083Y-70877849D01*
X72654638Y-70902835D01*
X72619899Y-70921403D01*
X72582212Y-70932836D01*
X72536874Y-70937301D01*
X71700196Y-70937301D01*
X71654858Y-70932836D01*
X71617171Y-70921403D01*
X71582432Y-70902835D01*
X71551987Y-70877849D01*
X71527001Y-70847404D01*
X71508433Y-70812665D01*
X71497000Y-70774978D01*
X71492535Y-70729640D01*
X71492535Y-69642962D01*
X71497000Y-69597624D01*
X71508433Y-69559937D01*
X71527001Y-69525198D01*
X71551987Y-69494753D01*
X71582432Y-69469767D01*
X71617171Y-69451199D01*
X71654858Y-69439766D01*
X71700196Y-69435301D01*
X72536874Y-69435301D01*
X72582212Y-69439766D01*
X72582212Y-69439766D01*
G37*
G36*
X61070442Y-62605518D02*
X61136627Y-62612037D01*
X61249853Y-62646384D01*
X61306467Y-62663557D01*
X61391160Y-62708827D01*
X61462991Y-62747222D01*
X61494814Y-62773339D01*
X61600186Y-62859814D01*
X61661996Y-62935131D01*
X61712778Y-62997009D01*
X61712779Y-62997011D01*
X61796443Y-63153533D01*
X61796443Y-63153534D01*
X61847963Y-63323373D01*
X61865359Y-63500000D01*
X61847963Y-63676627D01*
X61813616Y-63789853D01*
X61796443Y-63846467D01*
X61722348Y-63985087D01*
X61712778Y-64002991D01*
X61683448Y-64038729D01*
X61600186Y-64140186D01*
X61498729Y-64223448D01*
X61462991Y-64252778D01*
X61462989Y-64252779D01*
X61306467Y-64336443D01*
X61249853Y-64353616D01*
X61136627Y-64387963D01*
X61070442Y-64394482D01*
X61004260Y-64401000D01*
X60915740Y-64401000D01*
X60849558Y-64394482D01*
X60783373Y-64387963D01*
X60670147Y-64353616D01*
X60613533Y-64336443D01*
X60457011Y-64252779D01*
X60457009Y-64252778D01*
X60421271Y-64223448D01*
X60319814Y-64140186D01*
X60236552Y-64038729D01*
X60207222Y-64002991D01*
X60197652Y-63985087D01*
X60123557Y-63846467D01*
X60106384Y-63789853D01*
X60072037Y-63676627D01*
X60054641Y-63500000D01*
X60072037Y-63323373D01*
X60123557Y-63153534D01*
X60123557Y-63153533D01*
X60207221Y-62997011D01*
X60207222Y-62997009D01*
X60258004Y-62935131D01*
X60319814Y-62859814D01*
X60425186Y-62773339D01*
X60457009Y-62747222D01*
X60528840Y-62708827D01*
X60613533Y-62663557D01*
X60670147Y-62646384D01*
X60783373Y-62612037D01*
X60849558Y-62605518D01*
X60915740Y-62599000D01*
X61004260Y-62599000D01*
X61070442Y-62605518D01*
X61070442Y-62605518D01*
G37*
G36*
X95958677Y-61483465D02*
X95996364Y-61494898D01*
X96031103Y-61513466D01*
X96061548Y-61538452D01*
X96086534Y-61568897D01*
X96105102Y-61603636D01*
X96116535Y-61641323D01*
X96121000Y-61686661D01*
X96121000Y-62773339D01*
X96116535Y-62818677D01*
X96105102Y-62856364D01*
X96086534Y-62891103D01*
X96061548Y-62921548D01*
X96031103Y-62946534D01*
X95996364Y-62965102D01*
X95958677Y-62976535D01*
X95913339Y-62981000D01*
X95076661Y-62981000D01*
X95031323Y-62976535D01*
X94993636Y-62965102D01*
X94958897Y-62946534D01*
X94928452Y-62921548D01*
X94903466Y-62891103D01*
X94884898Y-62856364D01*
X94873465Y-62818677D01*
X94869000Y-62773339D01*
X94869000Y-61686661D01*
X94873465Y-61641323D01*
X94884898Y-61603636D01*
X94903466Y-61568897D01*
X94928452Y-61538452D01*
X94958897Y-61513466D01*
X94993636Y-61494898D01*
X95031323Y-61483465D01*
X95076661Y-61479000D01*
X95913339Y-61479000D01*
X95958677Y-61483465D01*
X95958677Y-61483465D01*
G37*
G36*
X98008677Y-61483465D02*
X98046364Y-61494898D01*
X98081103Y-61513466D01*
X98111548Y-61538452D01*
X98136534Y-61568897D01*
X98155102Y-61603636D01*
X98166535Y-61641323D01*
X98171000Y-61686661D01*
X98171000Y-62773339D01*
X98166535Y-62818677D01*
X98155102Y-62856364D01*
X98136534Y-62891103D01*
X98111548Y-62921548D01*
X98081103Y-62946534D01*
X98046364Y-62965102D01*
X98008677Y-62976535D01*
X97963339Y-62981000D01*
X97126661Y-62981000D01*
X97081323Y-62976535D01*
X97043636Y-62965102D01*
X97008897Y-62946534D01*
X96978452Y-62921548D01*
X96953466Y-62891103D01*
X96934898Y-62856364D01*
X96923465Y-62818677D01*
X96919000Y-62773339D01*
X96919000Y-61686661D01*
X96923465Y-61641323D01*
X96934898Y-61603636D01*
X96953466Y-61568897D01*
X96978452Y-61538452D01*
X97008897Y-61513466D01*
X97043636Y-61494898D01*
X97081323Y-61483465D01*
X97126661Y-61479000D01*
X97963339Y-61479000D01*
X98008677Y-61483465D01*
X98008677Y-61483465D01*
G37*
G36*
X61070442Y-60065518D02*
X61136627Y-60072037D01*
X61249853Y-60106384D01*
X61306467Y-60123557D01*
X61445087Y-60197652D01*
X61462991Y-60207222D01*
X61498729Y-60236552D01*
X61600186Y-60319814D01*
X61683448Y-60421271D01*
X61712778Y-60457009D01*
X61712779Y-60457011D01*
X61796443Y-60613533D01*
X61796443Y-60613534D01*
X61847963Y-60783373D01*
X61865359Y-60960000D01*
X61847963Y-61136627D01*
X61813616Y-61249853D01*
X61796443Y-61306467D01*
X61793814Y-61311385D01*
X61712778Y-61462991D01*
X61695975Y-61483465D01*
X61600186Y-61600186D01*
X61498729Y-61683448D01*
X61462991Y-61712778D01*
X61462989Y-61712779D01*
X61306467Y-61796443D01*
X61249853Y-61813616D01*
X61136627Y-61847963D01*
X61070443Y-61854481D01*
X61004260Y-61861000D01*
X60915740Y-61861000D01*
X60849557Y-61854481D01*
X60783373Y-61847963D01*
X60670147Y-61813616D01*
X60613533Y-61796443D01*
X60457011Y-61712779D01*
X60457009Y-61712778D01*
X60421271Y-61683448D01*
X60319814Y-61600186D01*
X60224025Y-61483465D01*
X60207222Y-61462991D01*
X60126186Y-61311385D01*
X60123557Y-61306467D01*
X60106384Y-61249853D01*
X60072037Y-61136627D01*
X60054641Y-60960000D01*
X60072037Y-60783373D01*
X60123557Y-60613534D01*
X60123557Y-60613533D01*
X60207221Y-60457011D01*
X60207222Y-60457009D01*
X60236552Y-60421271D01*
X60319814Y-60319814D01*
X60421271Y-60236552D01*
X60457009Y-60207222D01*
X60474913Y-60197652D01*
X60613533Y-60123557D01*
X60670147Y-60106384D01*
X60783373Y-60072037D01*
X60849558Y-60065518D01*
X60915740Y-60059000D01*
X61004260Y-60059000D01*
X61070442Y-60065518D01*
X61070442Y-60065518D01*
G37*
G36*
X110796565Y-59369389D02*
X110987834Y-59448615D01*
X111159976Y-59563637D01*
X111306363Y-59710024D01*
X111421385Y-59882166D01*
X111500611Y-60073435D01*
X111541000Y-60276484D01*
X111541000Y-60483516D01*
X111500611Y-60686565D01*
X111421385Y-60877834D01*
X111306363Y-61049976D01*
X111159976Y-61196363D01*
X110987834Y-61311385D01*
X110796565Y-61390611D01*
X110593516Y-61431000D01*
X110386484Y-61431000D01*
X110183435Y-61390611D01*
X109992166Y-61311385D01*
X109820024Y-61196363D01*
X109673637Y-61049976D01*
X109558615Y-60877834D01*
X109479389Y-60686565D01*
X109439000Y-60483516D01*
X109439000Y-60276484D01*
X109479389Y-60073435D01*
X109558615Y-59882166D01*
X109673637Y-59710024D01*
X109820024Y-59563637D01*
X109992166Y-59448615D01*
X110183435Y-59369389D01*
X110386484Y-59329000D01*
X110593516Y-59329000D01*
X110796565Y-59369389D01*
X110796565Y-59369389D01*
G37*
G36*
X117296565Y-59369389D02*
X117487834Y-59448615D01*
X117659976Y-59563637D01*
X117806363Y-59710024D01*
X117921385Y-59882166D01*
X118000611Y-60073435D01*
X118041000Y-60276484D01*
X118041000Y-60483516D01*
X118000611Y-60686565D01*
X117921385Y-60877834D01*
X117806363Y-61049976D01*
X117659976Y-61196363D01*
X117487834Y-61311385D01*
X117296565Y-61390611D01*
X117093516Y-61431000D01*
X116886484Y-61431000D01*
X116683435Y-61390611D01*
X116492166Y-61311385D01*
X116320024Y-61196363D01*
X116173637Y-61049976D01*
X116058615Y-60877834D01*
X115979389Y-60686565D01*
X115939000Y-60483516D01*
X115939000Y-60276484D01*
X115979389Y-60073435D01*
X116058615Y-59882166D01*
X116173637Y-59710024D01*
X116320024Y-59563637D01*
X116492166Y-59448615D01*
X116683435Y-59369389D01*
X116886484Y-59329000D01*
X117093516Y-59329000D01*
X117296565Y-59369389D01*
X117296565Y-59369389D01*
G37*
G36*
X90686000Y-59841000D02*
X82034000Y-59841000D01*
X82034000Y-58239000D01*
X90686000Y-58239000D01*
X90686000Y-59841000D01*
X90686000Y-59841000D01*
G37*
G36*
X61070443Y-57525519D02*
X61136627Y-57532037D01*
X61249853Y-57566384D01*
X61306467Y-57583557D01*
X61391160Y-57628827D01*
X61462991Y-57667222D01*
X61494814Y-57693339D01*
X61600186Y-57779814D01*
X61661996Y-57855131D01*
X61712778Y-57917009D01*
X61712779Y-57917011D01*
X61796443Y-58073533D01*
X61796443Y-58073534D01*
X61847963Y-58243373D01*
X61865359Y-58420000D01*
X61847963Y-58596627D01*
X61813616Y-58709853D01*
X61796443Y-58766467D01*
X61722348Y-58905087D01*
X61712778Y-58922991D01*
X61683448Y-58958729D01*
X61600186Y-59060186D01*
X61498729Y-59143448D01*
X61462991Y-59172778D01*
X61462989Y-59172779D01*
X61306467Y-59256443D01*
X61249853Y-59273616D01*
X61136627Y-59307963D01*
X61070442Y-59314482D01*
X61004260Y-59321000D01*
X60915740Y-59321000D01*
X60849558Y-59314482D01*
X60783373Y-59307963D01*
X60670147Y-59273616D01*
X60613533Y-59256443D01*
X60457011Y-59172779D01*
X60457009Y-59172778D01*
X60421271Y-59143448D01*
X60319814Y-59060186D01*
X60236552Y-58958729D01*
X60207222Y-58922991D01*
X60197652Y-58905087D01*
X60123557Y-58766467D01*
X60106384Y-58709853D01*
X60072037Y-58596627D01*
X60054641Y-58420000D01*
X60072037Y-58243373D01*
X60123557Y-58073534D01*
X60123557Y-58073533D01*
X60207221Y-57917011D01*
X60207222Y-57917009D01*
X60258004Y-57855131D01*
X60319814Y-57779814D01*
X60425186Y-57693339D01*
X60457009Y-57667222D01*
X60528840Y-57628827D01*
X60613533Y-57583557D01*
X60670147Y-57566384D01*
X60783373Y-57532037D01*
X60849557Y-57525519D01*
X60915740Y-57519000D01*
X61004260Y-57519000D01*
X61070443Y-57525519D01*
X61070443Y-57525519D01*
G37*
G36*
X95958677Y-56403465D02*
X95996364Y-56414898D01*
X96031103Y-56433466D01*
X96061548Y-56458452D01*
X96086534Y-56488897D01*
X96105102Y-56523636D01*
X96116535Y-56561323D01*
X96121000Y-56606661D01*
X96121000Y-57693339D01*
X96116535Y-57738677D01*
X96105102Y-57776364D01*
X96086534Y-57811103D01*
X96061548Y-57841548D01*
X96031103Y-57866534D01*
X95996364Y-57885102D01*
X95958677Y-57896535D01*
X95913339Y-57901000D01*
X95076661Y-57901000D01*
X95031323Y-57896535D01*
X94993636Y-57885102D01*
X94958897Y-57866534D01*
X94928452Y-57841548D01*
X94903466Y-57811103D01*
X94884898Y-57776364D01*
X94873465Y-57738677D01*
X94869000Y-57693339D01*
X94869000Y-56606661D01*
X94873465Y-56561323D01*
X94884898Y-56523636D01*
X94903466Y-56488897D01*
X94928452Y-56458452D01*
X94958897Y-56433466D01*
X94993636Y-56414898D01*
X95031323Y-56403465D01*
X95076661Y-56399000D01*
X95913339Y-56399000D01*
X95958677Y-56403465D01*
X95958677Y-56403465D01*
G37*
G36*
X98008677Y-56403465D02*
X98046364Y-56414898D01*
X98081103Y-56433466D01*
X98111548Y-56458452D01*
X98136534Y-56488897D01*
X98155102Y-56523636D01*
X98166535Y-56561323D01*
X98171000Y-56606661D01*
X98171000Y-57693339D01*
X98166535Y-57738677D01*
X98155102Y-57776364D01*
X98136534Y-57811103D01*
X98111548Y-57841548D01*
X98081103Y-57866534D01*
X98046364Y-57885102D01*
X98008677Y-57896535D01*
X97963339Y-57901000D01*
X97126661Y-57901000D01*
X97081323Y-57896535D01*
X97043636Y-57885102D01*
X97008897Y-57866534D01*
X96978452Y-57841548D01*
X96953466Y-57811103D01*
X96934898Y-57776364D01*
X96923465Y-57738677D01*
X96919000Y-57693339D01*
X96919000Y-56606661D01*
X96923465Y-56561323D01*
X96934898Y-56523636D01*
X96953466Y-56488897D01*
X96978452Y-56458452D01*
X97008897Y-56433466D01*
X97043636Y-56414898D01*
X97081323Y-56403465D01*
X97126661Y-56399000D01*
X97963339Y-56399000D01*
X98008677Y-56403465D01*
X98008677Y-56403465D01*
G37*
G36*
X81461000Y-57666000D02*
X79859000Y-57666000D01*
X79859000Y-49014000D01*
X81461000Y-49014000D01*
X81461000Y-57666000D01*
X81461000Y-57666000D01*
G37*
G36*
X92861000Y-57666000D02*
X91259000Y-57666000D01*
X91259000Y-49014000D01*
X92861000Y-49014000D01*
X92861000Y-57666000D01*
X92861000Y-57666000D01*
G37*
G36*
X117296565Y-54869389D02*
X117487834Y-54948615D01*
X117659976Y-55063637D01*
X117806363Y-55210024D01*
X117921385Y-55382166D01*
X118000611Y-55573435D01*
X118041000Y-55776484D01*
X118041000Y-55983516D01*
X118000611Y-56186565D01*
X117921385Y-56377834D01*
X117806363Y-56549976D01*
X117659976Y-56696363D01*
X117487834Y-56811385D01*
X117296565Y-56890611D01*
X117093516Y-56931000D01*
X116886484Y-56931000D01*
X116683435Y-56890611D01*
X116492166Y-56811385D01*
X116320024Y-56696363D01*
X116173637Y-56549976D01*
X116058615Y-56377834D01*
X115979389Y-56186565D01*
X115939000Y-55983516D01*
X115939000Y-55776484D01*
X115979389Y-55573435D01*
X116058615Y-55382166D01*
X116173637Y-55210024D01*
X116320024Y-55063637D01*
X116492166Y-54948615D01*
X116683435Y-54869389D01*
X116886484Y-54829000D01*
X117093516Y-54829000D01*
X117296565Y-54869389D01*
X117296565Y-54869389D01*
G37*
G36*
X110796565Y-54869389D02*
X110987834Y-54948615D01*
X111159976Y-55063637D01*
X111306363Y-55210024D01*
X111421385Y-55382166D01*
X111500611Y-55573435D01*
X111541000Y-55776484D01*
X111541000Y-55983516D01*
X111500611Y-56186565D01*
X111421385Y-56377834D01*
X111306363Y-56549976D01*
X111159976Y-56696363D01*
X110987834Y-56811385D01*
X110796565Y-56890611D01*
X110593516Y-56931000D01*
X110386484Y-56931000D01*
X110183435Y-56890611D01*
X109992166Y-56811385D01*
X109820024Y-56696363D01*
X109673637Y-56549976D01*
X109558615Y-56377834D01*
X109479389Y-56186565D01*
X109439000Y-55983516D01*
X109439000Y-55776484D01*
X109479389Y-55573435D01*
X109558615Y-55382166D01*
X109673637Y-55210024D01*
X109820024Y-55063637D01*
X109992166Y-54948615D01*
X110183435Y-54869389D01*
X110386484Y-54829000D01*
X110593516Y-54829000D01*
X110796565Y-54869389D01*
X110796565Y-54869389D01*
G37*
G36*
X61070443Y-54985519D02*
X61136627Y-54992037D01*
X61249853Y-55026384D01*
X61306467Y-55043557D01*
X61344033Y-55063637D01*
X61462991Y-55127222D01*
X61498729Y-55156552D01*
X61600186Y-55239814D01*
X61683448Y-55341271D01*
X61712778Y-55377009D01*
X61712779Y-55377011D01*
X61796443Y-55533533D01*
X61796443Y-55533534D01*
X61847963Y-55703373D01*
X61865359Y-55880000D01*
X61847963Y-56056627D01*
X61813616Y-56169853D01*
X61796443Y-56226467D01*
X61722348Y-56365087D01*
X61712778Y-56382991D01*
X61695975Y-56403465D01*
X61600186Y-56520186D01*
X61498729Y-56603448D01*
X61462991Y-56632778D01*
X61462989Y-56632779D01*
X61306467Y-56716443D01*
X61249853Y-56733616D01*
X61136627Y-56767963D01*
X61070443Y-56774481D01*
X61004260Y-56781000D01*
X60915740Y-56781000D01*
X60849557Y-56774481D01*
X60783373Y-56767963D01*
X60670147Y-56733616D01*
X60613533Y-56716443D01*
X60457011Y-56632779D01*
X60457009Y-56632778D01*
X60421271Y-56603448D01*
X60319814Y-56520186D01*
X60224025Y-56403465D01*
X60207222Y-56382991D01*
X60197652Y-56365087D01*
X60123557Y-56226467D01*
X60106384Y-56169853D01*
X60072037Y-56056627D01*
X60054641Y-55880000D01*
X60072037Y-55703373D01*
X60123557Y-55533534D01*
X60123557Y-55533533D01*
X60207221Y-55377011D01*
X60207222Y-55377009D01*
X60236552Y-55341271D01*
X60319814Y-55239814D01*
X60421271Y-55156552D01*
X60457009Y-55127222D01*
X60575967Y-55063637D01*
X60613533Y-55043557D01*
X60670147Y-55026384D01*
X60783373Y-54992037D01*
X60849557Y-54985519D01*
X60915740Y-54979000D01*
X61004260Y-54979000D01*
X61070443Y-54985519D01*
X61070443Y-54985519D01*
G37*
G36*
X61070443Y-52445519D02*
X61136627Y-52452037D01*
X61249853Y-52486384D01*
X61306467Y-52503557D01*
X61445087Y-52577652D01*
X61462991Y-52587222D01*
X61498729Y-52616552D01*
X61600186Y-52699814D01*
X61683448Y-52801271D01*
X61712778Y-52837009D01*
X61712779Y-52837011D01*
X61796443Y-52993533D01*
X61796443Y-52993534D01*
X61847963Y-53163373D01*
X61865359Y-53340000D01*
X61847963Y-53516627D01*
X61813616Y-53629853D01*
X61796443Y-53686467D01*
X61728274Y-53814000D01*
X61712778Y-53842991D01*
X61683448Y-53878729D01*
X61600186Y-53980186D01*
X61498729Y-54063448D01*
X61462991Y-54092778D01*
X61462989Y-54092779D01*
X61306467Y-54176443D01*
X61249853Y-54193616D01*
X61136627Y-54227963D01*
X61070442Y-54234482D01*
X61004260Y-54241000D01*
X60915740Y-54241000D01*
X60849558Y-54234482D01*
X60783373Y-54227963D01*
X60670147Y-54193616D01*
X60613533Y-54176443D01*
X60457011Y-54092779D01*
X60457009Y-54092778D01*
X60421271Y-54063448D01*
X60319814Y-53980186D01*
X60236552Y-53878729D01*
X60207222Y-53842991D01*
X60191726Y-53814000D01*
X60123557Y-53686467D01*
X60106384Y-53629853D01*
X60072037Y-53516627D01*
X60054641Y-53340000D01*
X60072037Y-53163373D01*
X60123557Y-52993534D01*
X60123557Y-52993533D01*
X60207221Y-52837011D01*
X60207222Y-52837009D01*
X60236552Y-52801271D01*
X60319814Y-52699814D01*
X60421271Y-52616552D01*
X60457009Y-52587222D01*
X60474913Y-52577652D01*
X60613533Y-52503557D01*
X60670147Y-52486384D01*
X60783373Y-52452037D01*
X60849558Y-52445518D01*
X60915740Y-52439000D01*
X61004260Y-52439000D01*
X61070443Y-52445519D01*
X61070443Y-52445519D01*
G37*
G36*
X61070442Y-49905518D02*
X61136627Y-49912037D01*
X61249853Y-49946384D01*
X61306467Y-49963557D01*
X61445087Y-50037652D01*
X61462991Y-50047222D01*
X61498729Y-50076552D01*
X61600186Y-50159814D01*
X61683448Y-50261271D01*
X61712778Y-50297009D01*
X61712779Y-50297011D01*
X61796443Y-50453533D01*
X61796443Y-50453534D01*
X61847963Y-50623373D01*
X61865359Y-50800000D01*
X61847963Y-50976627D01*
X61813616Y-51089853D01*
X61796443Y-51146467D01*
X61732550Y-51266000D01*
X61712778Y-51302991D01*
X61683448Y-51338729D01*
X61600186Y-51440186D01*
X61498729Y-51523448D01*
X61462991Y-51552778D01*
X61462989Y-51552779D01*
X61306467Y-51636443D01*
X61249853Y-51653616D01*
X61136627Y-51687963D01*
X61070442Y-51694482D01*
X61004260Y-51701000D01*
X60915740Y-51701000D01*
X60849558Y-51694482D01*
X60783373Y-51687963D01*
X60670147Y-51653616D01*
X60613533Y-51636443D01*
X60457011Y-51552779D01*
X60457009Y-51552778D01*
X60421271Y-51523448D01*
X60319814Y-51440186D01*
X60236552Y-51338729D01*
X60207222Y-51302991D01*
X60187450Y-51266000D01*
X60123557Y-51146467D01*
X60106384Y-51089853D01*
X60072037Y-50976627D01*
X60054641Y-50800000D01*
X60072037Y-50623373D01*
X60123557Y-50453534D01*
X60123557Y-50453533D01*
X60207221Y-50297011D01*
X60207222Y-50297009D01*
X60236552Y-50261271D01*
X60319814Y-50159814D01*
X60421271Y-50076552D01*
X60457009Y-50047222D01*
X60474913Y-50037652D01*
X60613533Y-49963557D01*
X60670147Y-49946384D01*
X60783373Y-49912037D01*
X60849557Y-49905519D01*
X60915740Y-49899000D01*
X61004260Y-49899000D01*
X61070442Y-49905518D01*
X61070442Y-49905518D01*
G37*
G36*
X112721000Y-51481000D02*
X108919000Y-51481000D01*
X108919000Y-49879000D01*
X112721000Y-49879000D01*
X112721000Y-51481000D01*
X112721000Y-51481000D01*
G37*
G36*
X107621000Y-50481000D02*
X104519000Y-50481000D01*
X104519000Y-48579000D01*
X107621000Y-48579000D01*
X107621000Y-50481000D01*
X107621000Y-50481000D01*
G37*
G36*
X117121000Y-50481000D02*
X114019000Y-50481000D01*
X114019000Y-48579000D01*
X117121000Y-48579000D01*
X117121000Y-50481000D01*
X117121000Y-50481000D01*
G37*
G36*
X61070443Y-47365519D02*
X61136627Y-47372037D01*
X61249853Y-47406384D01*
X61306467Y-47423557D01*
X61432633Y-47490995D01*
X61462991Y-47507222D01*
X61498729Y-47536552D01*
X61600186Y-47619814D01*
X61681002Y-47718290D01*
X61712778Y-47757009D01*
X61712779Y-47757011D01*
X61796443Y-47913533D01*
X61796443Y-47913534D01*
X61847963Y-48083373D01*
X61865359Y-48260000D01*
X61847963Y-48436627D01*
X61846636Y-48441000D01*
X61796443Y-48606467D01*
X61722348Y-48745087D01*
X61712778Y-48762991D01*
X61683448Y-48798729D01*
X61600186Y-48900186D01*
X61498729Y-48983448D01*
X61462991Y-49012778D01*
X61462989Y-49012779D01*
X61306467Y-49096443D01*
X61249853Y-49113616D01*
X61136627Y-49147963D01*
X61070443Y-49154481D01*
X61004260Y-49161000D01*
X60915740Y-49161000D01*
X60849557Y-49154481D01*
X60783373Y-49147963D01*
X60670147Y-49113616D01*
X60613533Y-49096443D01*
X60457011Y-49012779D01*
X60457009Y-49012778D01*
X60421271Y-48983448D01*
X60319814Y-48900186D01*
X60236552Y-48798729D01*
X60207222Y-48762991D01*
X60197652Y-48745087D01*
X60123557Y-48606467D01*
X60073364Y-48441000D01*
X60072037Y-48436627D01*
X60054641Y-48260000D01*
X60072037Y-48083373D01*
X60123557Y-47913534D01*
X60123557Y-47913533D01*
X60207221Y-47757011D01*
X60207222Y-47757009D01*
X60238998Y-47718290D01*
X60319814Y-47619814D01*
X60421271Y-47536552D01*
X60457009Y-47507222D01*
X60487367Y-47490995D01*
X60613533Y-47423557D01*
X60670147Y-47406384D01*
X60783373Y-47372037D01*
X60849557Y-47365519D01*
X60915740Y-47359000D01*
X61004260Y-47359000D01*
X61070443Y-47365519D01*
X61070443Y-47365519D01*
G37*
G36*
X90686000Y-48441000D02*
X82034000Y-48441000D01*
X82034000Y-46839000D01*
X90686000Y-46839000D01*
X90686000Y-48441000D01*
X90686000Y-48441000D01*
G37*
G36*
X107980721Y-46700174D02*
X108080995Y-46741709D01*
X108171245Y-46802012D01*
X108247988Y-46878755D01*
X108308291Y-46969005D01*
X108349826Y-47069279D01*
X108371000Y-47175730D01*
X108371000Y-47284270D01*
X108349826Y-47390721D01*
X108308291Y-47490995D01*
X108247988Y-47581245D01*
X108171245Y-47657988D01*
X108080995Y-47718291D01*
X107980721Y-47759826D01*
X107874270Y-47781000D01*
X107765730Y-47781000D01*
X107659279Y-47759826D01*
X107559005Y-47718291D01*
X107468755Y-47657988D01*
X107392012Y-47581245D01*
X107331709Y-47490995D01*
X107290174Y-47390721D01*
X107269000Y-47284270D01*
X107269000Y-47175730D01*
X107290174Y-47069279D01*
X107331709Y-46969005D01*
X107392012Y-46878755D01*
X107468755Y-46802012D01*
X107559005Y-46741709D01*
X107659279Y-46700174D01*
X107765730Y-46679000D01*
X107874270Y-46679000D01*
X107980721Y-46700174D01*
X107980721Y-46700174D01*
G37*
G36*
X113980721Y-46700174D02*
X114080995Y-46741709D01*
X114171245Y-46802012D01*
X114247988Y-46878755D01*
X114308291Y-46969005D01*
X114349826Y-47069279D01*
X114371000Y-47175730D01*
X114371000Y-47284270D01*
X114349826Y-47390721D01*
X114308291Y-47490995D01*
X114247988Y-47581245D01*
X114171245Y-47657988D01*
X114080995Y-47718291D01*
X113980721Y-47759826D01*
X113874270Y-47781000D01*
X113765730Y-47781000D01*
X113659279Y-47759826D01*
X113559005Y-47718291D01*
X113468755Y-47657988D01*
X113392012Y-47581245D01*
X113331709Y-47490995D01*
X113290174Y-47390721D01*
X113269000Y-47284270D01*
X113269000Y-47175730D01*
X113290174Y-47069279D01*
X113331709Y-46969005D01*
X113392012Y-46878755D01*
X113468755Y-46802012D01*
X113559005Y-46741709D01*
X113659279Y-46700174D01*
X113765730Y-46679000D01*
X113874270Y-46679000D01*
X113980721Y-46700174D01*
X113980721Y-46700174D01*
G37*
G36*
X61070442Y-44825518D02*
X61136627Y-44832037D01*
X61249853Y-44866384D01*
X61306467Y-44883557D01*
X61445087Y-44957652D01*
X61462991Y-44967222D01*
X61498729Y-44996552D01*
X61600186Y-45079814D01*
X61683448Y-45181271D01*
X61712778Y-45217009D01*
X61712779Y-45217011D01*
X61796443Y-45373533D01*
X61796443Y-45373534D01*
X61847963Y-45543373D01*
X61865359Y-45720000D01*
X61847963Y-45896627D01*
X61813616Y-46009853D01*
X61796443Y-46066467D01*
X61722348Y-46205087D01*
X61712778Y-46222991D01*
X61683448Y-46258729D01*
X61600186Y-46360186D01*
X61498729Y-46443448D01*
X61462991Y-46472778D01*
X61462989Y-46472779D01*
X61306467Y-46556443D01*
X61249853Y-46573616D01*
X61136627Y-46607963D01*
X61070442Y-46614482D01*
X61004260Y-46621000D01*
X60915740Y-46621000D01*
X60849558Y-46614482D01*
X60783373Y-46607963D01*
X60670147Y-46573616D01*
X60613533Y-46556443D01*
X60457011Y-46472779D01*
X60457009Y-46472778D01*
X60421271Y-46443448D01*
X60319814Y-46360186D01*
X60236552Y-46258729D01*
X60207222Y-46222991D01*
X60197652Y-46205087D01*
X60123557Y-46066467D01*
X60106384Y-46009853D01*
X60072037Y-45896627D01*
X60054641Y-45720000D01*
X60072037Y-45543373D01*
X60123557Y-45373534D01*
X60123557Y-45373533D01*
X60207221Y-45217011D01*
X60207222Y-45217009D01*
X60236552Y-45181271D01*
X60319814Y-45079814D01*
X60421271Y-44996552D01*
X60457009Y-44967222D01*
X60474913Y-44957652D01*
X60613533Y-44883557D01*
X60670147Y-44866384D01*
X60783373Y-44832037D01*
X60849558Y-44825518D01*
X60915740Y-44819000D01*
X61004260Y-44819000D01*
X61070442Y-44825518D01*
X61070442Y-44825518D01*
G37*
G36*
X61070442Y-42285518D02*
X61136627Y-42292037D01*
X61249853Y-42326384D01*
X61306467Y-42343557D01*
X61445087Y-42417652D01*
X61462991Y-42427222D01*
X61498729Y-42456552D01*
X61600186Y-42539814D01*
X61683448Y-42641271D01*
X61712778Y-42677009D01*
X61712779Y-42677011D01*
X61796443Y-42833533D01*
X61796443Y-42833534D01*
X61847963Y-43003373D01*
X61865359Y-43180000D01*
X61847963Y-43356627D01*
X61813616Y-43469853D01*
X61796443Y-43526467D01*
X61722348Y-43665087D01*
X61712778Y-43682991D01*
X61683448Y-43718729D01*
X61600186Y-43820186D01*
X61498729Y-43903448D01*
X61462991Y-43932778D01*
X61462989Y-43932779D01*
X61306467Y-44016443D01*
X61249853Y-44033616D01*
X61136627Y-44067963D01*
X61070443Y-44074481D01*
X61004260Y-44081000D01*
X60915740Y-44081000D01*
X60849557Y-44074481D01*
X60783373Y-44067963D01*
X60670147Y-44033616D01*
X60613533Y-44016443D01*
X60457011Y-43932779D01*
X60457009Y-43932778D01*
X60421271Y-43903448D01*
X60319814Y-43820186D01*
X60236552Y-43718729D01*
X60207222Y-43682991D01*
X60197652Y-43665087D01*
X60123557Y-43526467D01*
X60106384Y-43469853D01*
X60072037Y-43356627D01*
X60054641Y-43180000D01*
X60072037Y-43003373D01*
X60123557Y-42833534D01*
X60123557Y-42833533D01*
X60207221Y-42677011D01*
X60207222Y-42677009D01*
X60236552Y-42641271D01*
X60319814Y-42539814D01*
X60421271Y-42456552D01*
X60457009Y-42427222D01*
X60474913Y-42417652D01*
X60613533Y-42343557D01*
X60670147Y-42326384D01*
X60783373Y-42292037D01*
X60849558Y-42285518D01*
X60915740Y-42279000D01*
X61004260Y-42279000D01*
X61070442Y-42285518D01*
X61070442Y-42285518D01*
G37*
G36*
X95863062Y-39718181D02*
X95897977Y-39728773D01*
X95930165Y-39745978D01*
X95958373Y-39769127D01*
X95981522Y-39797335D01*
X95998727Y-39829523D01*
X96009319Y-39864438D01*
X96013500Y-39906895D01*
X96013500Y-41373105D01*
X96009319Y-41415562D01*
X95998727Y-41450477D01*
X95981522Y-41482665D01*
X95958373Y-41510873D01*
X95930165Y-41534022D01*
X95897977Y-41551227D01*
X95863062Y-41561819D01*
X95820605Y-41566000D01*
X94679395Y-41566000D01*
X94636938Y-41561819D01*
X94602023Y-41551227D01*
X94569835Y-41534022D01*
X94541627Y-41510873D01*
X94518478Y-41482665D01*
X94501273Y-41450477D01*
X94490681Y-41415562D01*
X94486500Y-41373105D01*
X94486500Y-39906895D01*
X94490681Y-39864438D01*
X94501273Y-39829523D01*
X94518478Y-39797335D01*
X94541627Y-39769127D01*
X94569835Y-39745978D01*
X94602023Y-39728773D01*
X94636938Y-39718181D01*
X94679395Y-39714000D01*
X95820605Y-39714000D01*
X95863062Y-39718181D01*
X95863062Y-39718181D01*
G37*
G36*
X99238062Y-39718181D02*
X99272977Y-39728773D01*
X99305165Y-39745978D01*
X99333373Y-39769127D01*
X99356522Y-39797335D01*
X99373727Y-39829523D01*
X99384319Y-39864438D01*
X99388500Y-39906895D01*
X99388500Y-41373105D01*
X99384319Y-41415562D01*
X99373727Y-41450477D01*
X99356522Y-41482665D01*
X99333373Y-41510873D01*
X99305165Y-41534022D01*
X99272977Y-41551227D01*
X99238062Y-41561819D01*
X99195605Y-41566000D01*
X98054395Y-41566000D01*
X98011938Y-41561819D01*
X97977023Y-41551227D01*
X97944835Y-41534022D01*
X97916627Y-41510873D01*
X97893478Y-41482665D01*
X97876273Y-41450477D01*
X97865681Y-41415562D01*
X97861500Y-41373105D01*
X97861500Y-39906895D01*
X97865681Y-39864438D01*
X97876273Y-39829523D01*
X97893478Y-39797335D01*
X97916627Y-39769127D01*
X97944835Y-39745978D01*
X97977023Y-39728773D01*
X98011938Y-39718181D01*
X98054395Y-39714000D01*
X99195605Y-39714000D01*
X99238062Y-39718181D01*
X99238062Y-39718181D01*
G37*
G36*
X102213062Y-39718181D02*
X102247977Y-39728773D01*
X102280165Y-39745978D01*
X102308373Y-39769127D01*
X102331522Y-39797335D01*
X102348727Y-39829523D01*
X102359319Y-39864438D01*
X102363500Y-39906895D01*
X102363500Y-41373105D01*
X102359319Y-41415562D01*
X102348727Y-41450477D01*
X102331522Y-41482665D01*
X102308373Y-41510873D01*
X102280165Y-41534022D01*
X102247977Y-41551227D01*
X102213062Y-41561819D01*
X102170605Y-41566000D01*
X101029395Y-41566000D01*
X100986938Y-41561819D01*
X100952023Y-41551227D01*
X100919835Y-41534022D01*
X100891627Y-41510873D01*
X100868478Y-41482665D01*
X100851273Y-41450477D01*
X100840681Y-41415562D01*
X100836500Y-41373105D01*
X100836500Y-39906895D01*
X100840681Y-39864438D01*
X100851273Y-39829523D01*
X100868478Y-39797335D01*
X100891627Y-39769127D01*
X100919835Y-39745978D01*
X100952023Y-39728773D01*
X100986938Y-39718181D01*
X101029395Y-39714000D01*
X102170605Y-39714000D01*
X102213062Y-39718181D01*
X102213062Y-39718181D01*
G37*
G36*
X92888062Y-39718181D02*
X92922977Y-39728773D01*
X92955165Y-39745978D01*
X92983373Y-39769127D01*
X93006522Y-39797335D01*
X93023727Y-39829523D01*
X93034319Y-39864438D01*
X93038500Y-39906895D01*
X93038500Y-41373105D01*
X93034319Y-41415562D01*
X93023727Y-41450477D01*
X93006522Y-41482665D01*
X92983373Y-41510873D01*
X92955165Y-41534022D01*
X92922977Y-41551227D01*
X92888062Y-41561819D01*
X92845605Y-41566000D01*
X91704395Y-41566000D01*
X91661938Y-41561819D01*
X91627023Y-41551227D01*
X91594835Y-41534022D01*
X91566627Y-41510873D01*
X91543478Y-41482665D01*
X91526273Y-41450477D01*
X91515681Y-41415562D01*
X91511500Y-41373105D01*
X91511500Y-39906895D01*
X91515681Y-39864438D01*
X91526273Y-39829523D01*
X91543478Y-39797335D01*
X91566627Y-39769127D01*
X91594835Y-39745978D01*
X91627023Y-39728773D01*
X91661938Y-39718181D01*
X91704395Y-39714000D01*
X92845605Y-39714000D01*
X92888062Y-39718181D01*
X92888062Y-39718181D01*
G37*
G36*
X61861000Y-41541000D02*
X60059000Y-41541000D01*
X60059000Y-39739000D01*
X61861000Y-39739000D01*
X61861000Y-41541000D01*
X61861000Y-41541000D01*
G37*
G36*
X114606001Y-41276001D02*
X111004001Y-41276001D01*
X111004001Y-38774001D01*
X114606001Y-38774001D01*
X114606001Y-41276001D01*
X114606001Y-41276001D01*
G37*
G36*
X109406001Y-41276001D02*
X105804001Y-41276001D01*
X105804001Y-38774001D01*
X109406001Y-38774001D01*
X109406001Y-41276001D01*
X109406001Y-41276001D01*
G37*
G36*
X72021000Y-40271000D02*
X70219000Y-40271000D01*
X70219000Y-38469000D01*
X72021000Y-38469000D01*
X72021000Y-40271000D01*
X72021000Y-40271000D01*
G37*
G36*
X73770443Y-38475519D02*
X73836627Y-38482037D01*
X73949853Y-38516384D01*
X74006467Y-38533557D01*
X74145087Y-38607652D01*
X74162991Y-38617222D01*
X74198729Y-38646552D01*
X74300186Y-38729814D01*
X74383448Y-38831271D01*
X74412778Y-38867009D01*
X74412779Y-38867011D01*
X74496443Y-39023533D01*
X74496443Y-39023534D01*
X74547963Y-39193373D01*
X74565359Y-39370000D01*
X74547963Y-39546627D01*
X74513616Y-39659853D01*
X74496443Y-39716467D01*
X74436012Y-39829523D01*
X74412778Y-39872991D01*
X74383448Y-39908729D01*
X74300186Y-40010186D01*
X74198729Y-40093448D01*
X74162991Y-40122778D01*
X74162989Y-40122779D01*
X74006467Y-40206443D01*
X73949853Y-40223616D01*
X73836627Y-40257963D01*
X73770443Y-40264481D01*
X73704260Y-40271000D01*
X73615740Y-40271000D01*
X73549557Y-40264481D01*
X73483373Y-40257963D01*
X73370147Y-40223616D01*
X73313533Y-40206443D01*
X73157011Y-40122779D01*
X73157009Y-40122778D01*
X73121271Y-40093448D01*
X73019814Y-40010186D01*
X72936552Y-39908729D01*
X72907222Y-39872991D01*
X72883988Y-39829523D01*
X72823557Y-39716467D01*
X72806384Y-39659853D01*
X72772037Y-39546627D01*
X72754641Y-39370000D01*
X72772037Y-39193373D01*
X72823557Y-39023534D01*
X72823557Y-39023533D01*
X72907221Y-38867011D01*
X72907222Y-38867009D01*
X72936552Y-38831271D01*
X73019814Y-38729814D01*
X73121271Y-38646552D01*
X73157009Y-38617222D01*
X73174913Y-38607652D01*
X73313533Y-38533557D01*
X73370147Y-38516384D01*
X73483373Y-38482037D01*
X73549557Y-38475519D01*
X73615740Y-38469000D01*
X73704260Y-38469000D01*
X73770443Y-38475519D01*
X73770443Y-38475519D01*
G37*
G36*
X76310443Y-38475519D02*
X76376627Y-38482037D01*
X76489853Y-38516384D01*
X76546467Y-38533557D01*
X76685087Y-38607652D01*
X76702991Y-38617222D01*
X76738729Y-38646552D01*
X76840186Y-38729814D01*
X76923448Y-38831271D01*
X76952778Y-38867009D01*
X76952779Y-38867011D01*
X77036443Y-39023533D01*
X77036443Y-39023534D01*
X77087963Y-39193373D01*
X77105359Y-39370000D01*
X77087963Y-39546627D01*
X77053616Y-39659853D01*
X77036443Y-39716467D01*
X76976012Y-39829523D01*
X76952778Y-39872991D01*
X76923448Y-39908729D01*
X76840186Y-40010186D01*
X76738729Y-40093448D01*
X76702991Y-40122778D01*
X76702989Y-40122779D01*
X76546467Y-40206443D01*
X76489853Y-40223616D01*
X76376627Y-40257963D01*
X76310443Y-40264481D01*
X76244260Y-40271000D01*
X76155740Y-40271000D01*
X76089557Y-40264481D01*
X76023373Y-40257963D01*
X75910147Y-40223616D01*
X75853533Y-40206443D01*
X75697011Y-40122779D01*
X75697009Y-40122778D01*
X75661271Y-40093448D01*
X75559814Y-40010186D01*
X75476552Y-39908729D01*
X75447222Y-39872991D01*
X75423988Y-39829523D01*
X75363557Y-39716467D01*
X75346384Y-39659853D01*
X75312037Y-39546627D01*
X75294641Y-39370000D01*
X75312037Y-39193373D01*
X75363557Y-39023534D01*
X75363557Y-39023533D01*
X75447221Y-38867011D01*
X75447222Y-38867009D01*
X75476552Y-38831271D01*
X75559814Y-38729814D01*
X75661271Y-38646552D01*
X75697009Y-38617222D01*
X75714913Y-38607652D01*
X75853533Y-38533557D01*
X75910147Y-38516384D01*
X76023373Y-38482037D01*
X76089557Y-38475519D01*
X76155740Y-38469000D01*
X76244260Y-38469000D01*
X76310443Y-38475519D01*
X76310443Y-38475519D01*
G37*
G36*
X78850443Y-38475519D02*
X78916627Y-38482037D01*
X79029853Y-38516384D01*
X79086467Y-38533557D01*
X79225087Y-38607652D01*
X79242991Y-38617222D01*
X79278729Y-38646552D01*
X79380186Y-38729814D01*
X79463448Y-38831271D01*
X79492778Y-38867009D01*
X79492779Y-38867011D01*
X79576443Y-39023533D01*
X79576443Y-39023534D01*
X79627963Y-39193373D01*
X79645359Y-39370000D01*
X79627963Y-39546627D01*
X79593616Y-39659853D01*
X79576443Y-39716467D01*
X79516012Y-39829523D01*
X79492778Y-39872991D01*
X79463448Y-39908729D01*
X79380186Y-40010186D01*
X79278729Y-40093448D01*
X79242991Y-40122778D01*
X79242989Y-40122779D01*
X79086467Y-40206443D01*
X79029853Y-40223616D01*
X78916627Y-40257963D01*
X78850443Y-40264481D01*
X78784260Y-40271000D01*
X78695740Y-40271000D01*
X78629557Y-40264481D01*
X78563373Y-40257963D01*
X78450147Y-40223616D01*
X78393533Y-40206443D01*
X78237011Y-40122779D01*
X78237009Y-40122778D01*
X78201271Y-40093448D01*
X78099814Y-40010186D01*
X78016552Y-39908729D01*
X77987222Y-39872991D01*
X77963988Y-39829523D01*
X77903557Y-39716467D01*
X77886384Y-39659853D01*
X77852037Y-39546627D01*
X77834641Y-39370000D01*
X77852037Y-39193373D01*
X77903557Y-39023534D01*
X77903557Y-39023533D01*
X77987221Y-38867011D01*
X77987222Y-38867009D01*
X78016552Y-38831271D01*
X78099814Y-38729814D01*
X78201271Y-38646552D01*
X78237009Y-38617222D01*
X78254913Y-38607652D01*
X78393533Y-38533557D01*
X78450147Y-38516384D01*
X78563373Y-38482037D01*
X78629557Y-38475519D01*
X78695740Y-38469000D01*
X78784260Y-38469000D01*
X78850443Y-38475519D01*
X78850443Y-38475519D01*
G37*
G36*
X81390443Y-38475519D02*
X81456627Y-38482037D01*
X81569853Y-38516384D01*
X81626467Y-38533557D01*
X81765087Y-38607652D01*
X81782991Y-38617222D01*
X81818729Y-38646552D01*
X81920186Y-38729814D01*
X82003448Y-38831271D01*
X82032778Y-38867009D01*
X82032779Y-38867011D01*
X82116443Y-39023533D01*
X82116443Y-39023534D01*
X82167963Y-39193373D01*
X82185359Y-39370000D01*
X82167963Y-39546627D01*
X82133616Y-39659853D01*
X82116443Y-39716467D01*
X82056012Y-39829523D01*
X82032778Y-39872991D01*
X82003448Y-39908729D01*
X81920186Y-40010186D01*
X81818729Y-40093448D01*
X81782991Y-40122778D01*
X81782989Y-40122779D01*
X81626467Y-40206443D01*
X81569853Y-40223616D01*
X81456627Y-40257963D01*
X81390443Y-40264481D01*
X81324260Y-40271000D01*
X81235740Y-40271000D01*
X81169557Y-40264481D01*
X81103373Y-40257963D01*
X80990147Y-40223616D01*
X80933533Y-40206443D01*
X80777011Y-40122779D01*
X80777009Y-40122778D01*
X80741271Y-40093448D01*
X80639814Y-40010186D01*
X80556552Y-39908729D01*
X80527222Y-39872991D01*
X80503988Y-39829523D01*
X80443557Y-39716467D01*
X80426384Y-39659853D01*
X80392037Y-39546627D01*
X80374641Y-39370000D01*
X80392037Y-39193373D01*
X80443557Y-39023534D01*
X80443557Y-39023533D01*
X80527221Y-38867011D01*
X80527222Y-38867009D01*
X80556552Y-38831271D01*
X80639814Y-38729814D01*
X80741271Y-38646552D01*
X80777009Y-38617222D01*
X80794913Y-38607652D01*
X80933533Y-38533557D01*
X80990147Y-38516384D01*
X81103373Y-38482037D01*
X81169557Y-38475519D01*
X81235740Y-38469000D01*
X81324260Y-38469000D01*
X81390443Y-38475519D01*
X81390443Y-38475519D01*
G37*
G36*
X83930443Y-38475519D02*
X83996627Y-38482037D01*
X84109853Y-38516384D01*
X84166467Y-38533557D01*
X84305087Y-38607652D01*
X84322991Y-38617222D01*
X84358729Y-38646552D01*
X84460186Y-38729814D01*
X84543448Y-38831271D01*
X84572778Y-38867009D01*
X84572779Y-38867011D01*
X84656443Y-39023533D01*
X84656443Y-39023534D01*
X84707963Y-39193373D01*
X84725359Y-39370000D01*
X84707963Y-39546627D01*
X84673616Y-39659853D01*
X84656443Y-39716467D01*
X84596012Y-39829523D01*
X84572778Y-39872991D01*
X84543448Y-39908729D01*
X84460186Y-40010186D01*
X84358729Y-40093448D01*
X84322991Y-40122778D01*
X84322989Y-40122779D01*
X84166467Y-40206443D01*
X84109853Y-40223616D01*
X83996627Y-40257963D01*
X83930443Y-40264481D01*
X83864260Y-40271000D01*
X83775740Y-40271000D01*
X83709557Y-40264481D01*
X83643373Y-40257963D01*
X83530147Y-40223616D01*
X83473533Y-40206443D01*
X83317011Y-40122779D01*
X83317009Y-40122778D01*
X83281271Y-40093448D01*
X83179814Y-40010186D01*
X83096552Y-39908729D01*
X83067222Y-39872991D01*
X83043988Y-39829523D01*
X82983557Y-39716467D01*
X82966384Y-39659853D01*
X82932037Y-39546627D01*
X82914641Y-39370000D01*
X82932037Y-39193373D01*
X82983557Y-39023534D01*
X82983557Y-39023533D01*
X83067221Y-38867011D01*
X83067222Y-38867009D01*
X83096552Y-38831271D01*
X83179814Y-38729814D01*
X83281271Y-38646552D01*
X83317009Y-38617222D01*
X83334913Y-38607652D01*
X83473533Y-38533557D01*
X83530147Y-38516384D01*
X83643373Y-38482037D01*
X83709557Y-38475519D01*
X83775740Y-38469000D01*
X83864260Y-38469000D01*
X83930443Y-38475519D01*
X83930443Y-38475519D01*
G37*
M02*
