M48
;DRILL file {KiCad 5.0.2+dfsg1-1} date qui 12 set 2019 15:15:14 -03
;FORMAT={-:-/ absolute / inch / decimal}
FMAT,2
INCH,TZ
T1C0.0394
T2C0.0433
%
G90
G05
T1
X2.4Y-1.6
X2.4Y-1.7
X2.4Y-1.8
X2.4Y-1.9
X2.4Y-2.
X2.4Y-2.1
X2.4Y-2.2
X2.4Y-2.3
X2.4Y-2.4
X2.4Y-2.5
X2.8Y-1.55
X2.9Y-1.55
X3.Y-1.55
X3.1Y-1.55
X3.2Y-1.55
X3.3Y-1.55
X3.65Y-3.
X3.75Y-3.
X3.85Y-3.
X3.95Y-3.
X4.05Y-3.
X4.15Y-3.
X4.25Y-3.
X4.35Y-3.
X4.45Y-3.
X4.55Y-3.
T2
X4.35Y-2.2
X4.35Y-2.3772
X4.6059Y-2.2
X4.6059Y-2.3772
T0
M30
